<svg xmlns="http://www.w3.org/2000/svg" viewBox="0 0 587.42 387.2"><defs><style>.cls-1{fill:#ececec;}.cls-2{fill:#e1e1e1;}.cls-3{fill:#fff;}.cls-4{fill:#2d95ad;}.cls-5{fill:#59b5db;}.cls-6{opacity:0.4;}.cls-7{fill:#1a2e35;}.cls-8{opacity:0.2;}.cls-9{fill:#fafafa;}.cls-10{opacity:0.3;}.cls-11{fill:#e8505b;}.cls-12{fill:#ffbe9d;}.cls-13{fill:#f5f5f5;}.cls-14{fill:#375a64;}.cls-15{fill:#eb996e;}</style></defs><title>menu-admin-info-perguruan-tinggi</title><g id="Cloud"><path class="cls-1" d="M492.16,211.27s-7.34-5.64-18,12.11-15,28.1-15,28.1-2.75,3.68-5.22,1-5.59-10.12-10.19-9.15c-4.77,1-6.68,6.1-6.33,13.83s.47,24.67.48,26.21-1,3.64-3,2.07-13-15.76-19.41-10.13-1.92,27-1.48,29.34-.07,3.29-1.2,3.78-4.39-4.62-7.69-8.53-7.81-7.85-11.24-4.29-5.56,19.19,7.57,45.77l6.89,11.92,13.82.22c29.62-1.34,42.28-10.75,43.74-15.47s-4.17-6.77-9.19-7.77-11.06-1.39-11.18-2.62.47-2.14,2.74-2.88,23.14-7.12,25-15.46S457.3,298.15,455,297.18s-.95-2.89.38-3.61,16.25-8.81,23.18-12.23,10.48-7.57,9.06-12.23c-1.38-4.49-9.37-3.64-12.94-4.5s-1.67-5-1.67-5,7-8.78,17.37-26.72S492,211.17,492,211.17"/><path class="cls-2" d="M482.55,227.15s-.06.13-.2.38-.36.64-.62,1.12l-2.42,4.26c-2.11,3.69-5.19,9-9,15.59-7.67,13.14-18.42,31.2-30.35,51.12s-22.73,37.95-30.47,51.06c-3.85,6.54-7,11.84-9.14,15.52-1.08,1.82-1.92,3.24-2.49,4.22l-.66,1.09c-.15.24-.24.36-.24.36s.06-.13.2-.38.36-.64.62-1.12l2.42-4.25c2.11-3.7,5.19-9,9-15.6,7.67-13.14,18.42-31.2,30.36-51.12s22.72-37.95,30.46-51l9.14-15.53c1.08-1.82,1.92-3.24,2.49-4.22l.66-1.09C482.46,227.27,482.55,227.15,482.55,227.15Z"/><path class="cls-2" d="M447.65,253.84a6.59,6.59,0,0,1,.28,1c.15.62.35,1.52.58,2.64.47,2.24,1,5.35,1.59,8.79s1,6.47,1.41,8.82c.17,1.06.32,1.95.44,2.67a4.73,4.73,0,0,1,.12,1,4.25,4.25,0,0,1-.29-.95c-.15-.63-.35-1.53-.57-2.65-.45-2.25-1-5.36-1.53-8.81s-1.07-6.45-1.46-8.8c-.18-1.06-.33-1.95-.46-2.67A4.24,4.24,0,0,1,447.65,253.84Z"/><path class="cls-2" d="M453.31,279c0-.11,6.34-1.56,14.21-3.22s14.27-2.93,14.29-2.81-6.33,1.56-14.2,3.23S453.34,279.16,453.31,279Z"/><path class="cls-2" d="M433.6,308.8a4.43,4.43,0,0,1,1,0l2.76.2c2.32.17,5.54.39,9.09.51s6.77.12,9.11.1l2.76,0a4.24,4.24,0,0,1,1,.05,4.39,4.39,0,0,1-1,.12c-.66,0-1.6.11-2.77.16-2.33.09-5.56.14-9.13,0s-6.78-.39-9.1-.64c-1.16-.13-2.1-.24-2.75-.34A4.46,4.46,0,0,1,433.6,308.8Z"/><path class="cls-2" d="M423.46,287.13a3.83,3.83,0,0,1,.48.81l1.18,2.27c1,1.92,2.29,4.59,3.72,7.55s2.71,5.66,3.62,7.62c.41.91.76,1.69,1.05,2.32a3.78,3.78,0,0,1,.33.88,3.27,3.27,0,0,1-.48-.8c-.32-.62-.71-1.38-1.18-2.27-1-1.93-2.29-4.6-3.72-7.56s-2.71-5.65-3.62-7.61c-.41-.92-.76-1.69-1-2.33A3.45,3.45,0,0,1,423.46,287.13Z"/><path class="cls-2" d="M402.72,311.19a6.72,6.72,0,0,1,.61,1c.4.76.9,1.73,1.52,2.9,1.26,2.46,3,5.87,4.85,9.65s3.55,7.21,4.74,9.7l1.39,3a6.14,6.14,0,0,1,.46,1.12,6.72,6.72,0,0,1-.61-1c-.39-.76-.9-1.73-1.51-2.9-1.26-2.46-3-5.87-4.86-9.65s-3.54-7.21-4.74-9.7c-.56-1.2-1-2.19-1.39-3A7.44,7.44,0,0,1,402.72,311.19Z"/><path class="cls-2" d="M416.15,337.81a7.11,7.11,0,0,1,1.29,0l3.5.14c3,.11,7,.25,11.55.27s8.61-.05,11.56-.12l3.51-.09a7.63,7.63,0,0,1,1.29,0,7.7,7.7,0,0,1-1.28.15c-.83.07-2,.15-3.5.23-3,.15-7.06.28-11.58.25s-8.61-.21-11.57-.4c-1.47-.1-2.67-.19-3.49-.27A7.17,7.17,0,0,1,416.15,337.81Z"/><rect class="cls-3" x="395.93" y="161.6" width="73.44" height="49.5" transform="translate(-36.01 138.68) rotate(-17.49)"/><path class="cls-2" d="M475.12,198.92s-.11-.3-.3-.86l-.81-2.5c-.7-2.19-1.73-5.39-3-9.49-2.61-8.2-6.36-20-10.92-34.31l.24.13-70,22.13h0l.16-.31c5.3,16.83,10.34,32.83,14.86,47.22l-.28-.15L455.47,205l14.45-4.49,3.85-1.18,1-.31.35-.09-.32.11-1,.32L470,200.57l-14.36,4.59-50.54,16.05-.22.07-.07-.22L390,173.86l-.07-.24.23-.07h0l70.06-22,.18-.06.06.19c4.5,14.41,8.19,26.24,10.76,34.48l2.94,9.48c.33,1.07.58,1.9.76,2.47Z"/><path class="cls-2" d="M460.23,151.7s0,.08-.09.22-.19.36-.32.61l-1.28,2.31-4.8,8.49c-4.12,7.2-9.79,17.12-16.12,28.17l-.1.18-.2-.07-2.16-.81-31.84-11.94-9.63-3.67-2.6-1-.68-.28c-.15-.06-.23-.1-.22-.11l.24.07.69.23,2.64.93,9.68,3.53,31.89,11.8,2.16.81-.29.1,16.24-28.08,4.94-8.42,1.35-2.27.37-.59A1.8,1.8,0,0,1,460.23,151.7Z"/><path class="cls-2" d="M190.93,43.31a7.61,7.61,0,0,1-.21-1.85,15.27,15.27,0,0,0-.25-2.23,23.07,23.07,0,0,0-.58-3,28.08,28.08,0,0,0-3.11-7.69,28.6,28.6,0,0,0-34-12.85,27.08,27.08,0,0,0-7.26,3.7,33,33,0,0,0-3.28,2.67,32.6,32.6,0,0,0-2.85,3.22,28.24,28.24,0,0,0-.81,33.5,31.3,31.3,0,0,0,2.69,3.35A32,32,0,0,0,144.41,65,26.6,26.6,0,0,0,151.49,69a28.67,28.67,0,0,0,14.89,1.65,28.28,28.28,0,0,0,12.15-5,28.69,28.69,0,0,0,7.54-7.88,27.53,27.53,0,0,0,3.47-7.53,21.37,21.37,0,0,0,.73-3,15.61,15.61,0,0,0,.36-2.21,7.83,7.83,0,0,1,.3-1.84,8.59,8.59,0,0,1,0,1.87,13.8,13.8,0,0,1-.21,2.26,19.77,19.77,0,0,1-.6,3,27.11,27.11,0,0,1-3.31,7.84A29.51,29.51,0,0,1,166.59,72,29.82,29.82,0,0,1,151,70.4a28,28,0,0,1-7.48-4.22,33,33,0,0,1-3.33-3,32.8,32.8,0,0,1-2.85-3.53,29.68,29.68,0,0,1,.86-35.35,34.94,34.94,0,0,1,3-3.39,35.31,35.31,0,0,1,3.47-2.79,28,28,0,0,1,7.67-3.85,29.82,29.82,0,0,1,15.7-.83,29.51,29.51,0,0,1,19.55,14.64,27.06,27.06,0,0,1,2.93,8,18.66,18.66,0,0,1,.45,3.07,12.4,12.4,0,0,1,.1,2.27A8.66,8.66,0,0,1,190.93,43.31Z"/><path class="cls-2" d="M185.1,25.11c.06.09-.46.55-1.47,1.3l-1.88,1.35c-.37.25-.76.54-1.19.81l-1.44.75A32.86,32.86,0,0,1,162,33.63l-2.59-.11-2.49-.39c-.41-.07-.81-.12-1.21-.2l-1.16-.31c-.77-.22-1.52-.39-2.24-.63A37.63,37.63,0,0,1,145,28.65c-3.9-2.36-5.8-4.51-5.65-4.65s2.28,1.62,6.21,3.66a43.25,43.25,0,0,0,7.15,2.93c.7.2,1.43.35,2.16.54l1.12.28,1.15.17,2.38.35L162,32a35.56,35.56,0,0,0,16.59-3.72l1.45-.63c.44-.23.84-.48,1.23-.69l2-1.1C184.39,25.31,185,25,185.1,25.11Z"/><path class="cls-2" d="M138.5,60.53c-.07-.09.46-.55,1.47-1.3l1.88-1.35c.37-.25.76-.54,1.19-.81l1.44-.75A32.86,32.86,0,0,1,161.6,52l2.59.11,2.49.39c.41.07.81.12,1.21.2l1.16.31c.77.22,1.52.39,2.24.63A37.63,37.63,0,0,1,178.56,57c3.9,2.36,5.8,4.51,5.65,4.65S181.93,60,178,58a43.25,43.25,0,0,0-7.15-2.93c-.7-.2-1.43-.35-2.16-.54l-1.12-.28-1.16-.17L164,53.71l-2.47-.1A35.56,35.56,0,0,0,145,57.33l-1.45.63c-.44.23-.84.48-1.23.69l-2,1.1C139.21,60.33,138.56,60.62,138.5,60.53Z"/><path class="cls-2" d="M190.91,44c0,.44-13.06.48-29.14.09s-29.11-1.07-29.1-1.51,13.05-.48,29.14-.09S190.92,43.55,190.91,44Z"/><path class="cls-2" d="M160.45,71.7c-.45,0-.49-13.06-.1-29.13s1.07-29.11,1.51-29.1.48,13.06.09,29.14S160.89,71.71,160.45,71.7Z"/><path class="cls-2" d="M160.45,71.66c-.11.16-3.32-2-7-6.94a39,39,0,0,1-5.2-9.45A35.22,35.22,0,0,1,146,42.22,33.55,33.55,0,0,1,148.9,29.3a40.68,40.68,0,0,1,5.69-9.16c3.93-4.74,7.16-6.84,7.27-6.68s-2.77,2.57-6.37,7.38a43.46,43.46,0,0,0-5.23,9,33.48,33.48,0,0,0-2.69,12.37,35.36,35.36,0,0,0,2,12.51,42.22,42.22,0,0,0,4.75,9.31C157.72,69,160.61,71.48,160.45,71.66Z"/><path class="cls-2" d="M162.51,13.48c.11-.17,3.32,2,7,6.93a38.78,38.78,0,0,1,5.21,9.46A35,35,0,0,1,177,42.92a33.23,33.23,0,0,1-2.94,12.92A40.32,40.32,0,0,1,168.37,65c-3.93,4.74-7.16,6.84-7.27,6.67s2.77-2.57,6.37-7.37a43.29,43.29,0,0,0,5.23-9,33.63,33.63,0,0,0,2.69-12.36,35.23,35.23,0,0,0-2-12.52,41.92,41.92,0,0,0-4.74-9.3C165.24,16.1,162.35,13.66,162.51,13.48Z"/><path class="cls-2" d="M344.14,44.15A3.59,3.59,0,0,0,345.59,43a3.39,3.39,0,0,0,.55-2.17,5.38,5.38,0,0,0-.39-1.4l-.57-1.6c-1.62-4.54-3.93-11.07-6.79-19.12q-1.06-3-2.24-6.34c-.39-1.1-.78-2.23-1.19-3.37a10.83,10.83,0,0,0-.66-1.66A3.11,3.11,0,0,0,333,6.15a2.88,2.88,0,0,0-1.71-.24,13.94,13.94,0,0,0-1.79.6l-3.72,1.37-7.76,2.85-34.6,12.69a3,3,0,0,0-1.8,3.61q.79,2.26,1.57,4.52l3.1,8.87c2,5.82,4,11.44,5.85,16.79l.69,2a3.22,3.22,0,0,0,1.06,1.58,2.88,2.88,0,0,0,1.73.62,5.05,5.05,0,0,0,1.86-.47l7.33-2.67L318,53.48l19.08-6.88,5.2-1.84,1.36-.47a3.09,3.09,0,0,1,.47-.14,2.9,2.9,0,0,1-.45.2l-1.34.52-5.16,2-19,7.06L305,58.73l-7.33,2.69-1,.35a3.3,3.3,0,0,1-1.08.17,3.46,3.46,0,0,1-2.07-.74,3.68,3.68,0,0,1-1.24-1.82c-.23-.66-.46-1.32-.7-2-1.87-5.35-3.84-11-5.88-16.77l-3.11-8.87q-.78-2.28-1.58-4.57a3.61,3.61,0,0,1,2.18-4.33l34.61-12.64,7.77-2.83L329.37,6a12.94,12.94,0,0,1,1.88-.62,3.34,3.34,0,0,1,2,.29,3.49,3.49,0,0,1,1.47,1.35,10.14,10.14,0,0,1,.7,1.75c.4,1.15.79,2.27,1.17,3.38.76,2.21,1.5,4.33,2.2,6.35,2.78,8.08,5,14.62,6.61,19.18l.54,1.61a5.34,5.34,0,0,1,.38,1.46,3.44,3.44,0,0,1-.63,2.25,3.18,3.18,0,0,1-1.1.94A1.86,1.86,0,0,1,344.14,44.15Z"/><polygon class="cls-2" points="314.56 29.67 322.4 31.21 317.26 37.46 312.11 43.7 309.42 35.91 306.73 28.12 314.56 29.67"/><path class="cls-4" d="M458,100.81a11.37,11.37,0,0,0-8.83-1.11,20,20,0,0,0-7.9,4.44c-4.47,3.86-7.49,9.94-9.34,15.55,6.35,1.65,13.2-1.65,16.57-3.54,5.32-3,13.14-11.62,9.5-15.34"/><path class="cls-5" d="M420.73,120.4a9.69,9.69,0,0,0,5.85-7.78,12.91,12.91,0,0,0-2.89-9.52,5.45,5.45,0,0,0-3.9-2.39,4.17,4.17,0,0,0-3.51,2.32,8.5,8.5,0,0,0-.78,4.29c.2,5.05,1.31,9.9,5.23,13.08"/><g class="cls-6"><path class="cls-3" d="M420.73,120.4a9.69,9.69,0,0,0,5.85-7.78,12.91,12.91,0,0,0-2.89-9.52,5.45,5.45,0,0,0-3.9-2.39,4.17,4.17,0,0,0-3.51,2.32,8.5,8.5,0,0,0-.78,4.29c.2,5.05,1.31,9.9,5.23,13.08"/></g><path class="cls-7" d="M409.45,135.76a7.81,7.81,0,0,0,.89-.83l2.36-2.32a34.26,34.26,0,0,0,6.7-8.64,20.93,20.93,0,0,0,2.35-10.64,14.14,14.14,0,0,0-.61-3.27,5.76,5.76,0,0,0-.31-.85c-.07-.19-.12-.29-.14-.28a20.79,20.79,0,0,1,.75,4.42A21.42,21.42,0,0,1,419,123.78a36.81,36.81,0,0,1-6.54,8.62c-1,1-1.74,1.84-2.26,2.42A6.05,6.05,0,0,0,409.45,135.76Z"/><path class="cls-7" d="M451.5,106.86a2.51,2.51,0,0,0-.47.24c-.33.21-.76.46-1.3.78-1.12.68-2.73,1.69-4.72,3-4,2.52-9.4,6.08-15.31,10.15s-11.17,7.87-14.95,10.68c-1.88,1.4-3.4,2.55-4.44,3.35l-1.19.94a2.25,2.25,0,0,0-.39.35,3.73,3.73,0,0,0,.44-.28l1.24-.87,4.52-3.25c3.82-2.74,9.11-6.5,15-10.57s11.31-7.66,15.24-10.24l4.64-3.07,1.26-.84A2.87,2.87,0,0,0,451.5,106.86Z"/><path class="cls-4" d="M422.6,129.47a22.68,22.68,0,0,1,20.7.87c1.58.92,3.22,2.41,3,4.22s-2.24,2.8-4,3.22a19.36,19.36,0,0,1-20-7.95"/><path class="cls-7" d="M438.25,132.81a6.21,6.21,0,0,0-1-.61,12.6,12.6,0,0,0-1.19-.62c-.48-.21-1-.5-1.63-.71a21.22,21.22,0,0,0-2.05-.7,23.76,23.76,0,0,0-2.41-.57,25.13,25.13,0,0,0-5.66-.36,24.69,24.69,0,0,0-5.59,1,20.08,20.08,0,0,0-2.32.88A22.51,22.51,0,0,0,413,133a9.87,9.87,0,0,0-1.08.79,6.2,6.2,0,0,0-.87.74c.06.08,1.31-1,3.61-2.2.58-.29,1.21-.62,1.93-.9s1.48-.56,2.3-.83a24.07,24.07,0,0,1,11.06-.65,21.68,21.68,0,0,1,2.39.53,20.4,20.4,0,0,1,2,.63C436.81,132.05,438.21,132.89,438.25,132.81Z"/><path class="cls-5" d="M173.73,238.13c16.41-13.56,18.52-36.44,16.19-56.67-.39-3.37-.31-7-2.16-9.81s-5.77-4.56-8.69-2.89c-2.41,1.39-3.27,4.4-4.48,6.93a19.84,19.84,0,0,1-7.33,8.23c-2.06,1.29-4.67,2.19-6.9,1.19-3.05-1.37-3.72-5.38-4-8.75L155,157.53c-.25-3.37-.52-6.81-1.83-9.92s-3.86-5.89-7.13-6.53-7.09,1.54-7.5,4.89a31.32,31.32,0,0,0,.24,4.2c0,1.4-.5,3-1.8,3.5s-2.73-.34-3.82-1.25c-3.75-3.11-6.46-7.3-9-11.48s-5.06-8.46-8.51-11.91-8.06-6-12.9-5.92-9.74,3.51-10.57,8.35,2.32,9.43,5.64,13a75.48,75.48,0,0,0,16.86,13.64,6.24,6.24,0,0,1,2.85,2.61c.91,2.18-1,4.58-3.19,5.5-2.44,1-5.19,1-7.79,1.52s-5.35,1.91-6.14,4.47c-1.1,3.56,2.07,6.93,5.1,9.06a64.34,64.34,0,0,0,19.94,9.45c2.55.71,5.22,1.29,7.36,2.87s3.59,4.51,2.58,7-4,3.48-6.69,3.21-5.06-1.49-7.61-2.22c-4.77-1.38-10.72-.57-13.36,3.67-1.73,2.78-1.61,6.46-.37,9.51a24.8,24.8,0,0,0,5.78,7.91,64.9,64.9,0,0,0,29.22,17.18c11,2.85,21.06,3.05,31.41-1.72"/><g class="cls-8"><path class="cls-3" d="M173.73,238.13c16.41-13.56,18.52-36.44,16.19-56.67-.39-3.37-.31-7-2.16-9.81s-5.77-4.56-8.69-2.89c-2.41,1.39-3.27,4.4-4.48,6.93a19.84,19.84,0,0,1-7.33,8.23c-2.06,1.29-4.67,2.19-6.9,1.19-3.05-1.37-3.72-5.38-4-8.75L155,157.53c-.25-3.37-.52-6.81-1.83-9.92s-3.86-5.89-7.13-6.53-7.09,1.54-7.5,4.89a31.32,31.32,0,0,0,.24,4.2c0,1.4-.5,3-1.8,3.5s-2.73-.34-3.82-1.25c-3.75-3.11-6.46-7.3-9-11.48s-5.06-8.46-8.51-11.91-8.06-6-12.9-5.92-9.74,3.51-10.57,8.35,2.32,9.43,5.64,13a75.48,75.48,0,0,0,16.86,13.64,6.24,6.24,0,0,1,2.85,2.61c.91,2.18-1,4.58-3.19,5.5-2.44,1-5.19,1-7.79,1.52s-5.35,1.91-6.14,4.47c-1.1,3.56,2.07,6.93,5.1,9.06a64.34,64.34,0,0,0,19.94,9.45c2.55.71,5.22,1.29,7.36,2.87s3.59,4.51,2.58,7-4,3.48-6.69,3.21-5.06-1.49-7.61-2.22c-4.77-1.38-10.72-.57-13.36,3.67-1.73,2.78-1.61,6.46-.37,9.51a24.8,24.8,0,0,0,5.78,7.91,64.9,64.9,0,0,0,29.22,17.18c11,2.85,21.06,3.05,31.41-1.72"/></g><path class="cls-7" d="M175.22,253.14a148.44,148.44,0,0,0-7.76-27.3,300.58,300.58,0,0,0-14.61-31.5l-4.25-8.06c-1.41-2.65-2.8-5.27-4.31-7.75a151.33,151.33,0,0,0-9.55-13.74c-3.24-4.23-6.48-8.12-9.53-11.74s-6-6.92-8.76-9.83a120.54,120.54,0,0,0-14.16-12.72c-1.78-1.37-3.2-2.38-4.17-3.06L97,126.68l-.38-.24a2.05,2.05,0,0,0,.35.3l1.07.81c.94.7,2.34,1.75,4.1,3.14a127.84,127.84,0,0,1,14,12.84c2.76,2.91,5.65,6.24,8.69,9.86s6.25,7.53,9.47,11.75a151.23,151.23,0,0,1,9.48,13.71c1.5,2.47,2.88,5.07,4.28,7.72l4.25,8.06a309.24,309.24,0,0,1,14.63,31.42,150.5,150.5,0,0,1,7.85,27.17"/><path class="cls-7" d="M144.11,178.52a7.18,7.18,0,0,0,.21-1.46c.1-.94.2-2.32.3-4,.21-3.39.33-8.08.44-13.26s.3-9.85.56-13.23c.12-1.69.24-3.06.33-4a7.5,7.5,0,0,0,.07-1.48,6.39,6.39,0,0,0-.31,1.45c-.17.94-.35,2.3-.53,4-.37,3.38-.62,8.07-.74,13.25s-.19,9.73-.26,13.26c0,1.59-.07,2.94-.1,4A6.32,6.32,0,0,0,144.11,178.52Z"/><path class="cls-7" d="M100.17,174a9.9,9.9,0,0,0,1.74.06c1.12,0,2.74,0,4.74.09,4,.1,9.51.44,15.59,1.08s11.54,1.48,15.48,2.19c2,.34,3.56.66,4.66.88a10,10,0,0,0,1.73.27,9.9,9.9,0,0,0-1.67-.51c-1.09-.29-2.67-.68-4.64-1.08-3.93-.82-9.41-1.72-15.5-2.37a150.77,150.77,0,0,0-15.65-.91c-2,0-3.63,0-4.75.12A8,8,0,0,0,100.17,174Z"/><path class="cls-7" d="M166.87,225.09a2.37,2.37,0,0,0,.25-.55c.17-.44.37-1,.61-1.63.53-1.41,1.24-3.48,2.08-6,1.68-5.13,3.79-12.29,6-20.22s4.25-15.09,5.83-20.25c.77-2.51,1.41-4.57,1.88-6.1.2-.67.37-1.22.51-1.67a2.5,2.5,0,0,0,.13-.59,1.94,1.94,0,0,0-.25.55l-.62,1.63c-.52,1.41-1.23,3.48-2.07,6-1.69,5.13-3.79,12.29-6,20.22s-4.25,15.1-5.83,20.25c-.77,2.51-1.41,4.57-1.88,6.1-.21.67-.37,1.22-.51,1.67A2,2,0,0,0,166.87,225.09Z"/><path class="cls-7" d="M107.84,211.22a2.29,2.29,0,0,0,.59.19l1.72.43,6.32,1.49c5.34,1.27,12.69,3.1,20.81,5.13s15.5,3.8,20.86,5c2.69.57,4.86,1,6.37,1.3l1.74.31a2.39,2.39,0,0,0,.62.06,2.91,2.91,0,0,0-.59-.19l-1.72-.42-6.32-1.5c-5.34-1.26-12.69-3.09-20.81-5.13s-15.5-3.8-20.86-4.95c-2.69-.58-4.86-1-6.37-1.3l-1.74-.31A2.21,2.21,0,0,0,107.84,211.22Z"/><path class="cls-2" d="M192.25,61s3.87,99.53,4.6,161.84c.69,59.6-19.23,125.83-16.37,146.68l239.58,12.33s-11.13-154-6.88-202.67c4.06-46.39,4-123.34,4-123.34Z"/><path class="cls-1" d="M182.8,57.76s3.95,99.54,4.69,161.84c.71,59.61-9.93,131.84-7,152.69l232.09-8.05S404.11,224.59,408.45,176c4.14-46.4,4.1-122.5,4.1-122.5Z"/><path class="cls-9" d="M179.77,57.77s-5.84,109.59-5.08,171.9c.73,59.6,2.8,121.77,5.81,142.62l225.76,2S397.56,234.65,402,186c4.26-46.4,4.23-129,4.23-129Z"/><path class="cls-7" d="M406.77,374.78l-226.68-2-.06-.4c-3.28-22.76-5.18-91.09-5.81-142.69-.76-61.6,5-170.83,5.08-171.93l0-.44,227.42-.72v.47c0,.83,0,83.12-4.24,129-4.42,48,4.15,186.82,4.23,188.22Zm-225.86-3,224.85,2c-.57-9.29-8.49-141.2-4.2-187.85,4-44,4.22-121.63,4.23-128.44l-225.57.71c-.41,7.72-5.79,111.85-5.06,171.42C175.79,280.93,177.67,348.71,180.91,371.82Z"/><rect class="cls-4" x="195" y="122.77" width="92.92" height="89.9"/><g class="cls-10"><polygon points="202.21 204.98 227.91 158.72 248.94 188.28 261.71 172.58 280.72 204.98 202.21 204.98"/></g><g class="cls-10"><path d="M257.89,149.72a6.69,6.69,0,1,1-6.68-6.69A6.68,6.68,0,0,1,257.89,149.72Z"/></g><g class="cls-10"><path d="M280.72,205.23a1.61,1.61,0,0,1,0-.37c0-.27,0-.61,0-1.05,0-1,0-2.31-.05-4.05,0-3.56-.05-8.72-.1-15.26,0-13.13-.11-31.83-.19-54.28l.38.38-78.5.06c-.11.09.83-.83.43-.43v20.18c0,6.61,0,13.08,0,19.37,0,12.59,0,24.5,0,35.45l-.38-.39L259,205l16,.1,4.25,0,1.1,0,.39,0-.34,0-1.06,0-4.18,0-15.92.11-57,.19h-.39v-.38c0-10.95,0-22.86,0-35.45,0-6.29,0-12.76,0-19.37V130.23c-.39.39.54-.56.46-.46l78.5.07h.38v.38c-.08,22.55-.15,41.33-.2,54.52,0,6.51-.07,11.64-.09,15.18,0,1.71,0,3-.05,4,0,.42,0,.75,0,1A2.06,2.06,0,0,1,280.72,205.23Z"/></g><rect class="cls-4" x="311.95" y="294.92" width="63.88" height="61.8"/><g class="cls-6"><polygon points="316.91 351.44 334.58 319.63 349.03 339.96 357.81 329.17 370.88 351.44 316.91 351.44"/></g><g class="cls-6"><path d="M355.19,313.45a4.6,4.6,0,1,1-4.6-4.6A4.59,4.59,0,0,1,355.19,313.45Z"/></g><g class="cls-6"><path d="M370.88,351.61s0-.09,0-.26,0-.42,0-.72c0-.65,0-1.58,0-2.78,0-2.45,0-6-.07-10.49,0-9-.07-21.89-.13-37.32l.26.26-54,0c-.07.07.57-.57.3-.29h0v13.86c0,4.54,0,9,0,13.32,0,8.66,0,16.84,0,24.37l-.26-.27,39,.14,11,.07,2.92,0h.76l.26,0h-.23l-.73,0-2.87,0-10.95.07-39.19.13h-.27v-.26c0-7.53,0-15.71,0-24.37V313.92q0-3.41,0-6.88v-7h0l.31-.31,54,0h.26V300c-.05,15.5-.1,28.41-.13,37.48,0,4.48-.05,8-.07,10.44,0,1.17,0,2.09,0,2.73,0,.29,0,.52,0,.69A.94.94,0,0,1,370.88,351.61Z"/></g><path d="M229.23,86.29c-1,.08-1.1.16-1.27,1l-1,5c-.18.91-.07,1,.94,1.06l-.06.34h-3.2l.07-.34c1-.08,1.08-.17,1.26-1.06l1-5c.17-.89.07-.95-.94-1l.07-.34h3.19Z"/><path d="M238.15,86.29c-.8.06-1,.25-1.13.75s-.24.93-.44,2l-.92,4.78h-.42l-3.62-6.33-.6,3.18c-.19,1-.29,1.61-.32,2,0,.55.21.65,1.07.72l-.08.34h-2.86l.07-.34c.66,0,1-.19,1.14-.73s.26-1,.47-2l.64-3.34a.75.75,0,0,0-.15-.68,1.4,1.4,0,0,0-1-.36l.08-.34h1.76l3.63,6.19.6-3.12c.2-1.09.3-1.65.32-2,.05-.54-.14-.69-1-.74l.08-.34h2.8Z"/><path d="M243,86h1.57c-.1.41-.23,1.18-.31,1.84h-.38a5.61,5.61,0,0,0-.09-.84c-.08-.37-.3-.54-1-.54h-1.33c-.4,0-.47,0-.54.46l-.51,2.72h1.41c1,0,1-.14,1.42-1h.36l-.51,2.51h-.35c0-1-.06-1.08-1-1.08h-1.4l-.44,2.21c-.18,1-.12,1.07,1,1.15l-.08.34h-3.26l.09-.34c1-.08,1-.15,1.24-1.16l.93-4.77c.2-1,.11-1.1-.91-1.19L239,86Z"/><path d="M252.38,89.14c0,2.5-1.72,4.79-4.24,4.79a3,3,0,0,1-3.1-3.29c0-2.47,1.76-4.86,4.24-4.86C251.2,85.78,252.38,87.1,252.38,89.14Zm-6.21,1.57c0,1.66.61,2.79,2.07,2.79,2,0,3-2.5,3-4.45,0-1.68-.5-2.83-2.05-2.83C247.35,86.22,246.17,88.59,246.17,90.71Z"/><path d="M259.8,86c1.74,0,2.53.87,2.53,2a2.67,2.67,0,0,1-2.88,2.62,2.17,2.17,0,0,1-.48-.06l-.79-.18-.36,2c-.17.9-.12,1,1,1.11l-.06.34h-3.25l.07-.34c.94-.08,1.08-.15,1.26-1.15l.95-4.87c.18-.93.12-1-.92-1.1l.07-.34Zm-1.54,4a3.49,3.49,0,0,0,1,.16,2,2,0,0,0,2-2.15,1.44,1.44,0,0,0-1.53-1.62c-.62,0-.82.17-.91.67Z"/><path d="M267.55,86h1.56c-.08.29-.21,1.12-.32,1.82l-.37,0c-.05-1.25-.25-1.37-1-1.37H266.2c-.39,0-.5,0-.58.48l-.51,2.58h1.24c1,0,1-.15,1.37-1h.36l-.5,2.49h-.36c0-.93,0-1-1-1H265l-.42,2.14c-.18.85-.16,1.23.69,1.23h.89a1.71,1.71,0,0,0,1.36-.38,4.15,4.15,0,0,0,.79-1.1l.35.12c-.12.33-.53,1.45-.69,1.82h-5.84l.09-.34c1.05-.1,1.15-.14,1.33-1.1l.94-4.91c.19-.92.13-1-.92-1.11l.07-.34Z"/><path d="M276,93.83h-.12a1.82,1.82,0,0,1-1.91-1.17c-.31-.6-.54-1.17-.8-1.77s-.35-.55-.78-.55h-.53l-.35,1.87c-.19,1.06-.11,1.11.92,1.2l-.07.34h-3.18l.08-.34c.94-.08,1.08-.14,1.27-1.18l.92-4.83c.19-1,.06-1-.91-1.11l.07-.34h2.77c1.33,0,2.41.53,2.41,1.89a2.41,2.41,0,0,1-1.89,2.29c.19.48.41,1,.63,1.44.71,1.46,1,1.77,1.57,2ZM272.46,90a2,2,0,0,0,2.19-2,1.41,1.41,0,0,0-1.44-1.57c-.45,0-.62,0-.74.64l-.58,3Z"/><path d="M283.49,88.05c.09-1.43-.51-1.85-1.77-1.85-2.24,0-3.61,2-3.61,4.18,0,1.94.95,3.12,2.6,3.12.65,0,1.23-.23,1.37-.85l.21-1.1c.18-.87.08-.92-1.06-1l.07-.33h3.05l-.09.32c-.72.12-.8.14-1,1l-.18,1a3.63,3.63,0,0,0-.09,1,10.35,10.35,0,0,1-2.47.41A3.3,3.3,0,0,1,277,90.45c0-2.7,2.05-4.67,5-4.67a10.63,10.63,0,0,1,2.19.3c-.08.38-.22,1.11-.32,2Z"/><path d="M293.39,86.29c-.81,0-1,.3-1.1.74s-.3,1.19-.73,3.42-1.27,3.49-3.41,3.48c-1.63,0-2.92-.82-2.43-3.35l.63-3.24c.17-.91.06-1-.92-1l.07-.34h3.16l-.06.34c-1,.09-1.07.12-1.25,1l-.62,3.21c-.4,2,.43,2.74,1.7,2.74,1.46,0,2.18-.74,2.59-2.82.44-2.29.57-3,.61-3.5s-.18-.62-1.08-.68l.08-.34h2.85Z"/><path d="M299.62,93.83h-.12a1.82,1.82,0,0,1-1.9-1.17c-.32-.6-.54-1.17-.81-1.77s-.35-.55-.78-.55h-.53l-.34,1.87c-.2,1.06-.11,1.11.92,1.2l-.07.34h-3.18l.07-.34c.95-.08,1.08-.14,1.27-1.18l.93-4.83c.19-1,.06-1-.91-1.11l.07-.34H297c1.33,0,2.41.53,2.41,1.89a2.41,2.41,0,0,1-1.9,2.29c.2.48.41,1,.64,1.44.71,1.46,1,1.77,1.57,2ZM296.13,90a2,2,0,0,0,2.2-2,1.41,1.41,0,0,0-1.44-1.57c-.46,0-.63,0-.75.64l-.57,3Z"/><path d="M308.66,86.29c-.82,0-1,.3-1.11.74s-.3,1.19-.73,3.42-1.27,3.49-3.4,3.48c-1.64,0-2.93-.82-2.44-3.35l.64-3.24c.16-.91.06-1-.93-1l.08-.34h3.15l-.06.34c-1,.09-1.07.12-1.25,1L302,90.55c-.4,2,.43,2.74,1.7,2.74,1.46,0,2.18-.74,2.59-2.82.45-2.29.58-3,.61-3.5s-.18-.62-1.08-.68l.09-.34h2.84Z"/><path d="M314.83,93.75H311.9l.06-.34c.86-.09,1-.2.9-.72s-.16-1.09-.26-1.78h-2.52c-.21.38-.61,1.08-.89,1.62-.37.7-.19.79.73.88l-.07.34H307.1l.09-.34c.76-.09.92-.17,1.51-1.15l3.68-6.4.4-.06c.52,3.52.79,5.13,1,6.58.13.84.22,1,1.1,1Zm-2.76-6.44h0c-.61,1.11-1.22,2.21-1.71,3.12h2.19Z"/><path d="M324.31,86.29c-.8.06-1,.25-1.13.75s-.24.93-.45,2l-.91,4.78h-.42l-3.62-6.33-.6,3.18c-.19,1-.29,1.61-.32,2,0,.55.21.65,1.06.72l-.07.34H315l.07-.34c.66,0,1-.19,1.14-.73s.26-1,.47-2l.64-3.34a.75.75,0,0,0-.15-.68,1.4,1.4,0,0,0-1-.36l.08-.34H318l3.64,6.19.6-3.12c.2-1.09.3-1.65.32-2,0-.54-.14-.69-1-.74l.08-.34h2.8Z"/><path d="M334.13,85.69c-.13.55-.27,1.43-.38,2.07l-.37,0a3,3,0,0,0-.05-.66c-.06-.53-.2-.72-1.3-.72h-.73l-1.12,5.89c-.18,1-.09,1,1,1.11l-.07.34h-3.3l.09-.34c1-.08,1.1-.15,1.28-1.11l1.13-5.89h-.72c-1,0-1.17.16-1.38.47a4.29,4.29,0,0,0-.54.92l-.38,0a21.27,21.27,0,0,0,.49-2.07h.27c.12.27.25.26.58.26h4.6a.67.67,0,0,0,.63-.26Z"/><path d="M338.16,86.29c-1,.08-1.11.16-1.28,1l-1,5c-.18.91-.07,1,.94,1.06l-.06.34h-3.2l.07-.34c1-.08,1.08-.17,1.26-1.06l1-5c.17-.89.07-.95-.94-1L335,86h3.19Z"/><path d="M347.07,86.29c-.79.06-1,.25-1.13.75s-.24.93-.44,2l-.91,4.78h-.42l-3.63-6.33-.6,3.18c-.19,1-.28,1.61-.32,2,0,.55.22.65,1.07.72l-.07.34h-2.87l.07-.34c.66,0,1-.19,1.14-.73s.26-1,.47-2l.65-3.34a.79.79,0,0,0-.16-.68,1.4,1.4,0,0,0-1-.36L339,86h1.75l3.63,6.19L345,89c.21-1.09.3-1.65.33-2,0-.54-.15-.69-1.05-.74l.09-.34h2.79Z"/><path d="M353.84,88.05c.08-1.43-.52-1.85-1.78-1.85-2.24,0-3.61,2-3.61,4.18,0,1.94.95,3.12,2.6,3.12.65,0,1.23-.23,1.37-.85l.22-1.1c.18-.87.07-.92-1.07-1l.07-.33h3.05l-.09.32c-.71.12-.8.14-1,1l-.18,1a3.21,3.21,0,0,0-.08,1,10.52,10.52,0,0,1-2.47.41,3.31,3.31,0,0,1-3.59-3.48c0-2.7,2.05-4.67,5-4.67a10.63,10.63,0,0,1,2.19.3c-.08.38-.21,1.11-.32,2Z"/><path d="M362.33,88.05c.09-1.43-.51-1.85-1.77-1.85-2.24,0-3.61,2-3.61,4.18,0,1.94.95,3.12,2.6,3.12.65,0,1.22-.23,1.37-.85l.21-1.1c.18-.87.08-.92-1.06-1l.07-.33h3.05l-.09.32c-.72.12-.8.14-1,1l-.18,1a3.63,3.63,0,0,0-.09,1,10.35,10.35,0,0,1-2.47.41,3.3,3.3,0,0,1-3.58-3.48c0-2.7,2.05-4.67,5-4.67a10.64,10.64,0,0,1,2.2.3c-.08.38-.22,1.11-.32,2Z"/><path d="M367.87,86.29c-1,.08-1.11.16-1.27,1l-1,5c-.18.91-.08,1,.93,1.06l-.06.34h-3.2l.07-.34c1-.08,1.08-.17,1.26-1.06l1-5c.17-.89.07-.95-.93-1l.07-.34h3.19Z"/><path class="cls-7" d="M392.61,104.9l-.52,0-1.51,0-5.83.12-21.45.36-70.75,1-70.77.85-21.44.2-5.84,0H193l-.52,0,.52,0,1.51,0,5.83-.12,21.45-.36,70.76-1,70.76-.85,21.44-.2,5.84,0h1.51Z"/><path class="cls-7" d="M388.06,72.41l-.52,0-1.51,0-5.84.12L358.75,73,288,74l-70.77.85-21.45.2L190,75h-1.51l-.52,0s.17,0,.52,0l1.51,0,5.83-.12,21.44-.36,70.77-1,70.76-.85,21.44-.2,5.83,0h1.52Z"/><path class="cls-7" d="M383.66,131c0,.14-17.23.25-38.48.25s-38.47-.11-38.47-.25,17.22-.24,38.47-.24S383.66,130.82,383.66,131Z"/><path class="cls-7" d="M383.66,143.27c0,.14-17.23.25-38.48.25s-38.47-.11-38.47-.25,17.22-.24,38.47-.24S383.66,143.14,383.66,143.27Z"/><path class="cls-7" d="M383.66,155.59c0,.14-17.23.25-38.48.25s-38.47-.11-38.47-.25,17.22-.24,38.47-.24S383.66,155.46,383.66,155.59Z"/><path class="cls-7" d="M383.66,167.91c0,.14-17.23.25-38.48.25s-38.47-.11-38.47-.25,17.22-.24,38.47-.24S383.66,167.78,383.66,167.91Z"/><path class="cls-7" d="M383.66,180.23c0,.14-17.23.25-38.48.25s-38.47-.11-38.47-.25,17.22-.25,38.47-.25S383.66,180.09,383.66,180.23Z"/><path class="cls-7" d="M283,284.8c0,.14-17.22.25-38.47.25s-38.47-.11-38.47-.25,17.22-.24,38.47-.24S283,284.67,283,284.8Z"/><path class="cls-7" d="M283,299.73c0,.14-17.22.25-38.47.25s-38.47-.11-38.47-.25,17.22-.25,38.47-.25S283,299.59,283,299.73Z"/><path class="cls-7" d="M283,314.66c0,.13-17.22.24-38.47.24s-38.47-.11-38.47-.24,17.22-.25,38.47-.25S283,314.52,283,314.66Z"/><path class="cls-7" d="M283,329.58c0,.14-17.22.25-38.47.25s-38.47-.11-38.47-.25,17.22-.25,38.47-.25S283,329.45,283,329.58Z"/><path class="cls-7" d="M251.71,345.63c0,.14-10.22.25-22.83.25s-22.83-.11-22.83-.25,10.22-.24,22.83-.24S251.71,345.5,251.71,345.63Z"/><path class="cls-7" d="M348.06,192.55a10.57,10.57,0,0,1-1.62.1l-4.43.07c-3.75.05-8.91.08-14.62.08s-10.88,0-14.62-.08l-4.44-.07a10.57,10.57,0,0,1-1.62-.1,10.57,10.57,0,0,1,1.62-.1l4.44-.07c3.74,0,8.91-.08,14.62-.08s10.87,0,14.62.08l4.43.07A10.57,10.57,0,0,1,348.06,192.55Z"/><path class="cls-7" d="M387.36,269.92c0,.14-41.24.25-92.1.25s-92.11-.11-92.11-.25,41.23-.24,92.11-.24S387.36,269.79,387.36,269.92Z"/><path class="cls-7" d="M387.36,253.66c0,.13-41.24.25-92.1.25s-92.11-.12-92.11-.25,41.23-.25,92.11-.25S387.36,253.52,387.36,253.66Z"/><path class="cls-7" d="M387.36,239.89c0,.14-41.24.25-92.1.25s-92.11-.11-92.11-.25,41.23-.24,92.11-.24S387.36,239.76,387.36,239.89Z"/><path class="cls-11" d="M289.22,229.19c0,.13-20,.24-44.7.24s-44.7-.11-44.7-.24,20-.25,44.7-.25S289.22,229.05,289.22,229.19Z"/><path class="cls-7" d="M266.14,230.58c7.77-1.91,12.59-11.49,9.49-18.87-1.68-4-5.27-7.46-5.06-11.79.14-2.95,2.08-5.53,2.53-8.45.84-5.47-3.54-10.18-5.56-15.33-2.08-5.32-1.62-11.23-1.6-16.94s-.59-11.85-4.29-16.21l-4.58,66.41Z"/><path class="cls-7" d="M214.36,128.83c-6.74,4.14-11.42,11-14.2,18.45s-3.83,15.33-4.65,23.19A450.25,450.25,0,0,0,193.32,233c25.51,3.23,51.2,6.47,76.85,4.72-4.44-29.29-7.26-58.54-3.7-87.94"/><path class="cls-7" d="M271.52,227.65s.31.09.92.1a4.1,4.1,0,0,0,2.44-.81,5.6,5.6,0,0,0,2.26-3.35,9.14,9.14,0,0,0-.69-5.37c-.75-1.91-2-3.8-3.13-6a15.14,15.14,0,0,1-1.34-3.58,13.1,13.1,0,0,1-.12-4.06,34.55,34.55,0,0,1,2.62-8.22c1.09-2.75,2.27-5.66,2.31-8.78a15.94,15.94,0,0,0-2.74-8.53c-1.53-2.54-3.3-4.82-4.72-7.18a30.76,30.76,0,0,1-3.48-23.61,22,22,0,0,1,.82-2.54l.25-.65a.9.9,0,0,1,.1-.22.79.79,0,0,1,0,.24q-.09.25-.21.66c-.2.57-.44,1.44-.72,2.56a31.74,31.74,0,0,0-.74,9.7,30.52,30.52,0,0,0,4.41,13.62c1.42,2.33,3.19,4.6,4.75,7.17a16.33,16.33,0,0,1,2.82,8.79c0,3.25-1.25,6.2-2.36,8.95a35.12,35.12,0,0,0-2.61,8.1,12.45,12.45,0,0,0,.1,3.91,14.29,14.29,0,0,0,1.27,3.48c1.08,2.16,2.35,4.08,3.09,6a9.35,9.35,0,0,1,.64,5.56A5.83,5.83,0,0,1,275,227.1a4.14,4.14,0,0,1-2.56.75,3.38,3.38,0,0,1-.69-.12A.61.61,0,0,1,271.52,227.65Z"/><path class="cls-12" d="M337.07,231.73c-1.28,1.41-2.48,1.68-3.07-1.06-1.29-6-4.5-10.21-6.13-10.73s-2.9,1.6-1.77,3.14a23,23,0,0,1,2.4,5.74,14.81,14.81,0,0,1,.67,5c-.05,1.44-.13,2.72-.24,3.87,0,0-.6,6.63-2.44,9.68l16.27,11.89,6.46-7.29s4.2-3.62,3-9-6.06-12.34-6.06-12.34c-1.66-.82,2.72-10.33,4.42-13.43s.93-5.15-1-4.8c-1.34.24-6.76,9.6-8.37,12.7-.89,1.7-2.56,5-4.11,6.73"/><path class="cls-5" d="M264.22,327.63c-4.69-13.58-3.36-15.56-4.06-20.42l-3.09,19.87,14.57,45.15-56.91.32H166.91l10.28-58.23-10.73-13.38-.23,5.7-32.51,4.41S148.67,265.8,156,246.16s21.22-26.11,21.22-26.11c26.49-9,46.2-9.57,69.07-4a49.67,49.67,0,0,1,37,39.83c.05.26.09.52.14.78l8.71,41.86,34.31-54.75,20.32,15.88L326.1,297.25l-17.44,32.36c-12.36,16-38.49,12.56-44.44-2"/><path class="cls-7" d="M181.84,265.79c-.14,0,.37-2.65.74-5.89s.47-5.91.62-5.91a32.15,32.15,0,0,1-1.36,11.8Z"/><path class="cls-7" d="M256.27,259.2a2.5,2.5,0,0,1,.32.4l.84,1.21a19.79,19.79,0,0,1,1.23,2,29.9,29.9,0,0,1,1.45,2.71,32.71,32.71,0,0,1,1.49,3.42c.52,1.24.91,2.62,1.35,4.06a49.85,49.85,0,0,1,1.57,9.67,53.54,53.54,0,0,1-.37,9.79c-.11.75-.21,1.47-.32,2.18s-.26,1.38-.39,2c-.24,1.32-.58,2.52-.86,3.62s-.63,2.08-.89,2.94-.54,1.6-.77,2.19l-.54,1.36a1.7,1.7,0,0,1-.22.46,2.66,2.66,0,0,1,.13-.49l.45-1.39c.2-.61.45-1.34.69-2.21s.57-1.84.81-2.94.58-2.31.8-3.62c.12-.65.27-1.33.37-2s.19-1.42.29-2.16a56.62,56.62,0,0,0,.33-9.71,51.49,51.49,0,0,0-1.52-9.58c-.42-1.43-.79-2.81-1.29-4a36.25,36.25,0,0,0-1.42-3.41c-.43-1.05-1-1.92-1.38-2.73a21,21,0,0,0-1.15-2l-.76-1.25A2.31,2.31,0,0,1,256.27,259.2Z"/><path class="cls-7" d="M291.74,313.19a69.59,69.59,0,0,1-.07-8.07,64.93,64.93,0,0,1,.43-8.06,69.68,69.68,0,0,1,.07,8.07A64.75,64.75,0,0,1,291.74,313.19Z"/><path class="cls-7" d="M298.61,312.42a60.66,60.66,0,0,1-3.17-7.25,65.57,65.57,0,0,1-2.71-7.43A62.51,62.51,0,0,1,295.9,305,66.37,66.37,0,0,1,298.61,312.42Z"/><path class="cls-13" d="M262,342.11h-.24l-.71-.06-1.15-.12a9.5,9.5,0,0,0-1.56-.06,34.27,34.27,0,0,0-9.85,1.44c-4.08,1.09-8.78,2.94-14.17,4.52a39.92,39.92,0,0,1-8.66,1.64,22.9,22.9,0,0,1-9.38-1.2,53.83,53.83,0,0,1-8.46-4.22,52.33,52.33,0,0,0-7.81-3.92,28,28,0,0,0-14.54-1.24,27.44,27.44,0,0,0-5.46,1.52,28.64,28.64,0,0,0-3.88,1.84,27.08,27.08,0,0,0-2.28,1.47l-.59.4-.21.13a20.42,20.42,0,0,1,3-2.17,28.52,28.52,0,0,1,3.88-1.93,27.27,27.27,0,0,1,5.5-1.61,28.25,28.25,0,0,1,14.76,1.16,52.21,52.21,0,0,1,7.89,3.93,53.8,53.8,0,0,0,8.39,4.18,22.58,22.58,0,0,0,9.18,1.18,39.66,39.66,0,0,0,8.57-1.6c5.36-1.54,10.08-3.36,14.2-4.42a33.16,33.16,0,0,1,9.94-1.29,8.33,8.33,0,0,1,1.58.11l1.14.16.7.11Z"/><path class="cls-13" d="M259.12,306.35a4.5,4.5,0,0,1-.78.1l-.93.09c-.37,0-.79.17-1.26.26a21.63,21.63,0,0,0-7.3,3.57c-1.42,1-2.91,2.17-4.52,3.43a60.05,60.05,0,0,1-5.3,3.84,20.84,20.84,0,0,1-6.66,2.87,18.06,18.06,0,0,1-3.84.38,23,23,0,0,1-3.94-.44c-5.27-1.1-9.81-3.51-13.92-5.53a48.16,48.16,0,0,0-11.34-4.28,19.52,19.52,0,0,0-8.11-.14,15.13,15.13,0,0,0-2.13.64,4.31,4.31,0,0,1-.74.24,5.09,5.09,0,0,1,.7-.34,14,14,0,0,1,2.13-.73,19.06,19.06,0,0,1,8.22,0,47.14,47.14,0,0,1,11.48,4.22c4.12,2,8.64,4.37,13.81,5.45a22.92,22.92,0,0,0,3.85.43,17,17,0,0,0,3.73-.37,20.48,20.48,0,0,0,6.52-2.77,64.46,64.46,0,0,0,5.29-3.78c1.62-1.25,3.13-2.41,4.57-3.4a21.09,21.09,0,0,1,7.46-3.47c.48-.08.9-.18,1.28-.22l.95,0A5.14,5.14,0,0,1,259.12,306.35Z"/><path class="cls-13" d="M311.45,321.58a2.45,2.45,0,0,1-.31.4,9.59,9.59,0,0,1-1,1,12.39,12.39,0,0,1-4.77,2.48,20.41,20.41,0,0,1-8,.48,57.07,57.07,0,0,1-9.47-2.38,45.47,45.47,0,0,0-9.42-2.17,18.7,18.7,0,0,0-7.75.91,12,12,0,0,0-4.49,2.74,11,11,0,0,0-.95,1.08,2.56,2.56,0,0,1-.34.39,1.91,1.91,0,0,1,.26-.44,8.39,8.39,0,0,1,.89-1.17,11.83,11.83,0,0,1,4.51-2.93,18.65,18.65,0,0,1,7.91-1,44.35,44.35,0,0,1,9.53,2.15,57.57,57.57,0,0,0,9.38,2.4,20.41,20.41,0,0,0,7.82-.37,12.88,12.88,0,0,0,4.74-2.29C311,322.1,311.4,321.54,311.45,321.58Z"/><path class="cls-13" d="M327.71,294.05s-.08.1-.25.25a5,5,0,0,1-.85.58,7.52,7.52,0,0,1-3.66.82,13.49,13.49,0,0,1-5.4-1.34c-1.91-.87-3.84-2.12-6-3.14a12.61,12.61,0,0,0-11.63-.08,16,16,0,0,0-4,3,1.48,1.48,0,0,1,.19-.3,7.43,7.43,0,0,1,.66-.78,12.13,12.13,0,0,1,3-2.26,12.68,12.68,0,0,1,12-.06c2.19,1.05,4.11,2.3,6,3.17a13.42,13.42,0,0,0,5.22,1.41,7.75,7.75,0,0,0,3.56-.64C327.31,294.34,327.68,294,327.71,294.05Z"/><path class="cls-13" d="M339.05,269.81s-.41.15-1.11.45a19.31,19.31,0,0,0-2.82,1.56,22.17,22.17,0,0,1-4.28,2.32,15.75,15.75,0,0,1-5.88,1,15.21,15.21,0,0,1-5.83-1.29,15.49,15.49,0,0,1-4.08-2.66,14.16,14.16,0,0,1-2.18-2.45,7.11,7.11,0,0,1-.47-.75c-.1-.18-.15-.28-.13-.29a24.11,24.11,0,0,0,3,3.23,15.89,15.89,0,0,0,4,2.5,15.15,15.15,0,0,0,5.66,1.21,15.79,15.79,0,0,0,5.72-.93,24.13,24.13,0,0,0,4.24-2.19,15.83,15.83,0,0,1,2.94-1.45A3.78,3.78,0,0,1,339.05,269.81Z"/><path class="cls-13" d="M289.55,286.73s-.39-.08-1.08-.06a6.29,6.29,0,0,0-2.77.74,22,22,0,0,0-3.54,2.51,13.41,13.41,0,0,1-4.8,2.54,14.34,14.34,0,0,1-9.7-.62,12.36,12.36,0,0,1-2.57-1.52,4.71,4.71,0,0,1-.8-.74,22.23,22.23,0,0,0,3.51,1.94,14.68,14.68,0,0,0,9.42.47c3.71-.94,5.94-3.9,8.33-4.9a6.27,6.27,0,0,1,2.93-.62,3.56,3.56,0,0,1,.81.15A1,1,0,0,1,289.55,286.73Z"/><path class="cls-13" d="M283.4,262.74a13.71,13.71,0,0,0-3.54-1.47,10.15,10.15,0,0,0-4.11-.09,9.35,9.35,0,0,0-4.52,2.1,38.22,38.22,0,0,0-3.41,3.84,7.9,7.9,0,0,1-3.49,2.47,4.38,4.38,0,0,1-2.88.07,2.56,2.56,0,0,1-.7-.37q-.22-.17-.21-.18c0-.05.33.19,1,.36a4.39,4.39,0,0,0,2.71-.2,7.84,7.84,0,0,0,3.26-2.45,35.44,35.44,0,0,1,3.42-3.92,9.61,9.61,0,0,1,4.77-2.16,10.12,10.12,0,0,1,4.28.19,9.13,9.13,0,0,1,2.64,1.15A3.21,3.21,0,0,1,283.4,262.74Z"/><path class="cls-13" d="M208.34,287.13c0-.05.79.25,2.24.48a17.32,17.32,0,0,0,6.19-.27,31.34,31.34,0,0,0,8.55-3.42c3.07-1.67,6.29-3.81,10-5.55a32.3,32.3,0,0,1,11-2.95,33.41,33.41,0,0,1,9.32.52,29.61,29.61,0,0,1,6,1.85c.7.27,1.2.56,1.55.72a2.22,2.22,0,0,1,.52.3s-.76-.31-2.14-.84a32.77,32.77,0,0,0-6-1.69,34.27,34.27,0,0,0-9.22-.41,32.49,32.49,0,0,0-10.86,2.94c-3.64,1.72-6.86,3.85-10,5.51a30.73,30.73,0,0,1-8.7,3.36,16.57,16.57,0,0,1-6.29.12,10.43,10.43,0,0,1-1.66-.44A2,2,0,0,1,208.34,287.13Z"/><path class="cls-13" d="M215.21,242.85a3,3,0,0,1-.52.33,9.23,9.23,0,0,1-1.66.7,13.83,13.83,0,0,1-6.55.32,21.88,21.88,0,0,1-4.38-1.26,46.54,46.54,0,0,1-4.71-2.26c-3.22-1.74-6.68-3.85-10.73-5a30.06,30.06,0,0,0-6-1.08c-1-.12-2-.09-2.91-.12s-1.89,0-2.79.15a33.15,33.15,0,0,0-9.36,2.29,34.19,34.19,0,0,0-5.75,3.06c-.64.43-1.11.8-1.45,1a2.88,2.88,0,0,1-.52.34,3.17,3.17,0,0,1,.46-.42c.32-.25.77-.65,1.4-1.11a30.61,30.61,0,0,1,5.73-3.22,32.63,32.63,0,0,1,9.45-2.42c.91-.12,1.86-.12,2.82-.17s2,0,3,.11a29.53,29.53,0,0,1,6.11,1.09c4.13,1.14,7.63,3.29,10.82,5a48.19,48.19,0,0,0,4.64,2.28,21.33,21.33,0,0,0,4.29,1.29,14.18,14.18,0,0,0,6.44-.15A20.4,20.4,0,0,0,215.21,242.85Z"/><path class="cls-13" d="M280,245.43s-.1.11-.3.27a4.39,4.39,0,0,1-1,.59,7.59,7.59,0,0,1-4.16.57,13.45,13.45,0,0,1-5.82-2.25c-2-1.26-3.95-3-6.24-4.34a16.48,16.48,0,0,0-7-2.32,18,18,0,0,0-6.09.46,22.27,22.27,0,0,0-5.21,2.23,1.57,1.57,0,0,1,.31-.26,9.64,9.64,0,0,1,1-.63,15,15,0,0,1,3.86-1.67,17.7,17.7,0,0,1,6.22-.59,16.76,16.76,0,0,1,7.27,2.36c2.33,1.42,4.27,3.12,6.22,4.38a13.6,13.6,0,0,0,5.62,2.29,8,8,0,0,0,4.05-.4C279.57,245.75,280,245.39,280,245.43Z"/><path class="cls-13" d="M181.37,267.89a6.38,6.38,0,0,1-1.4-.11l-3.81-.47-5.63-.76c-2.12-.29-4.45-.61-6.9-.71a26,26,0,0,0-6.86.54,17.55,17.55,0,0,0-5.19,2.09,16.26,16.26,0,0,0-3.85,3.45,1.33,1.33,0,0,1,.17-.32,10.2,10.2,0,0,1,.61-.86,12.62,12.62,0,0,1,2.89-2.56,16.8,16.8,0,0,1,5.27-2.24,24.88,24.88,0,0,1,7-.59,65.6,65.6,0,0,1,6.94.75l5.62.87,3.78.62A8,8,0,0,1,181.37,267.89Z"/><path class="cls-14" d="M261.53,173.05a5.27,5.27,0,0,1,.86,1.85,12.16,12.16,0,0,1,.14,5.54c-.37,2.34-1.4,5-1.95,8a12.34,12.34,0,0,0,0,4.73,41.42,41.42,0,0,0,1.54,4.93,13.89,13.89,0,0,1,1,5.17A15.14,15.14,0,0,1,262,208c-1.12,2.9-2.35,5.41-2.5,7.74a6.8,6.8,0,0,0,2.34,6.72,2.21,2.21,0,0,1-.45-.27,5.36,5.36,0,0,1-1.05-1.1,8.07,8.07,0,0,1-1.19-5.38A14.11,14.11,0,0,1,260,212c.46-1.3,1-2.65,1.57-4.09a15,15,0,0,0,1.05-4.64,14,14,0,0,0-.94-5,39.24,39.24,0,0,1-1.55-5,12.61,12.61,0,0,1,0-4.9c.59-3.08,1.66-5.67,2.06-8a12.56,12.56,0,0,0,0-5.43A15.89,15.89,0,0,0,261.53,173.05Z"/><path class="cls-12" d="M236.87,224.18c1.66-9.24,3.57-19,3.57-19s12.27.12,17.48-15c5-14.42,8.55-49.09,8.55-49.09h0a45.36,45.36,0,0,0-51.71,2.64h0L202.53,219.1c-1.42,8.75,5,16.93,14.34,18.38h0C226.34,238.94,235.29,233,236.87,224.18Z"/><path class="cls-7" d="M257.35,167.12a2,2,0,0,1-2.28,1.67,1.93,1.93,0,0,1-1.74-2.16,2,2,0,0,1,2.28-1.67A1.93,1.93,0,0,1,257.35,167.12Z"/><path class="cls-7" d="M261,165.46c-.29.21-1.6-1.17-3.75-1.54s-3.91.42-4.09.12c-.1-.14.24-.56,1-.94a5.54,5.54,0,0,1,3.33-.42,5.32,5.32,0,0,1,2.94,1.55C261,164.85,261.12,165.36,261,165.46Z"/><path class="cls-7" d="M235.31,163.63A2,2,0,0,1,233,165.3a1.93,1.93,0,0,1-1.74-2.16,2,2,0,0,1,2.27-1.67A1.93,1.93,0,0,1,235.31,163.63Z"/><path class="cls-7" d="M238.45,162.29c-.3.22-1.61-1.17-3.76-1.54s-3.91.43-4.09.12c-.1-.13.24-.56,1-.94a5.56,5.56,0,0,1,3.34-.42,5.46,5.46,0,0,1,2.93,1.55C238.45,161.69,238.59,162.2,238.45,162.29Z"/><path class="cls-7" d="M243.43,179.58a14.16,14.16,0,0,1,3.6,0c.56,0,1.09,0,1.25-.33a2.85,2.85,0,0,0-.08-1.69c-.28-1.42-.57-2.9-.88-4.46-1.21-6.34-2-11.51-1.72-11.55s1.44,5.05,2.64,11.39c.29,1.56.56,3,.82,4.47a3.23,3.23,0,0,1-.1,2.2,1.39,1.39,0,0,1-1,.64,3.62,3.62,0,0,1-.95,0A14.61,14.61,0,0,1,243.43,179.58Z"/><path class="cls-15" d="M240.44,205.23A40.17,40.17,0,0,1,220.6,196s3.17,11.57,19,12.86Z"/><path class="cls-15" d="M241.61,184.59a3.93,3.93,0,0,0-3.21-2.05,3.6,3.6,0,0,0-2.67.88,2.27,2.27,0,0,0-.62,2.53,2.63,2.63,0,0,0,2.69,1.21,8.21,8.21,0,0,0,3-1.16,2.22,2.22,0,0,0,.72-.52.73.73,0,0,0,.14-.8"/><path class="cls-7" d="M236.85,180c.36,0,0,2.37,1.65,4.38s4.23,2.18,4.19,2.51c0,.15-.63.35-1.68.2a5.88,5.88,0,0,1-3.52-2,5.12,5.12,0,0,1-1.24-3.64C236.34,180.44,236.7,179.91,236.85,180Z"/><path class="cls-7" d="M225.28,132.67c4.15,9.17,17.62,20.32,28,24.28-.94-1.89-6.79-7.21-7.73-9.1,4.19,4.56,10.26,10.74,16.67,12.29a4,4,0,0,0,2.29.07,3,3,0,0,0,1.59-2.22,66.4,66.4,0,0,0,2.2-14.15,15.8,15.8,0,0,0-3.72-11.08c-3.54-4-9.33-5.89-14.89-7.08-4.67-1-9.56-1.63-14.16-.74s-8.91,3.54-10.29,7.44"/><path class="cls-7" d="M200.48,167.19a89.42,89.42,0,0,1,.4-10.66c1.05-8.1,3.57-37.52,30.73-29.95l-2.89,7.54s2.09,18.94-11.85,29.1c0,0,.06,18.91-9.6,25.73,0,0-6.73-12.82-6.79-21.76"/><path class="cls-12" d="M217.45,161.94a9.43,9.43,0,0,0-5.06-.56,6.58,6.58,0,0,0-4.25,2.68,6.88,6.88,0,0,0-.92,5,11.53,11.53,0,0,0,2.1,4.68,7.78,7.78,0,0,0,2.66,2.54,3.75,3.75,0,0,0,3.56.07"/><path class="cls-15" d="M214.75,171.86c.18.1-.72,1-2.16.3a3.3,3.3,0,0,1-1.59-2,7.45,7.45,0,0,1-.35-2.91,4.4,4.4,0,0,1,1.22-2.8,2.94,2.94,0,0,1,2.41-.91c1.57.24,1.87,1.41,1.69,1.41s-.66-.56-1.73-.49-2.21,1.19-2.3,2.9.27,3.43,1.11,4S214.67,171.7,214.75,171.86Z"/><path class="cls-7" d="M213.32,179.07c-2.49,1-3.48,4.14-3.09,6.8s1.78,5,2.71,7.57,1.36,5.5-.07,7.77c-1.16,1.84-3.35,2.91-4.25,4.89-1.61,3.53,1.68,7.2,2.83,10.91a10,10,0,0,1-19,6.26c-2.66-7.56,4.16-15.78,2.24-23.55"/><path class="cls-7" d="M211.1,129.78c-7.18,5.75-15.57,19.39-16.18,28.58-.38,5.86.71,12.11-1.94,17.35-1.5,3-4,5.25-6.21,7.79s-4,5.67-3.68,9c.48,4.67,5.12,8,5.87,12.66.46,2.77-.55,5.54-1.18,8.28s-.76,5.91,1.07,8c3,3.41,11.25,11.11,13.48,7.2s-.38-18.37-.71-22.86a217.13,217.13,0,0,1,6.32-70.67"/><path class="cls-7" d="M186.63,215.36a6,6,0,0,0,1-.13,3.46,3.46,0,0,0,1.1-.58,4.56,4.56,0,0,0,1.07-1.32,5.25,5.25,0,0,0,.6-2,4.85,4.85,0,0,0-.49-2.46,12.43,12.43,0,0,0-4.22-4.52c-.94-.69-2-1.39-3-2.22a11,11,0,0,1-2.65-3.05,7.77,7.77,0,0,1-.75-2,9.17,9.17,0,0,1-.13-2.23,11.94,11.94,0,0,1,1.34-4.39c1.41-2.85,3.89-5.12,6.19-7.55a24.5,24.5,0,0,0,3.18-4,15.1,15.1,0,0,0,1.9-4.84,42.49,42.49,0,0,0,.42-10.35c-.06-1.69-.12-3.36-.07-5,0-.82.08-1.63.18-2.42.05-.4.09-.8.14-1.19s.15-.78.22-1.16a30.88,30.88,0,0,1,7.44-14.61,32.89,32.89,0,0,1,4.74-4.24c.78-.52,1.49-1,2.19-1.42s1.33-.77,1.92-1l1.6-.72c.47-.19.88-.32,1.2-.44l.75-.25.25-.08s-.07,0-.24.12l-.72.3c-.32.14-.72.28-1.18.48l-1.57.77c-.59.28-1.2.68-1.89,1.07s-1.38.92-2.15,1.44a33.89,33.89,0,0,0-4.64,4.25A30.75,30.75,0,0,0,193.19,154c-.07.37-.14.76-.22,1.14s-.08.77-.13,1.17c-.1.78-.14,1.57-.17,2.38,0,1.62,0,3.27.08,5a42.73,42.73,0,0,1-.41,10.48,15.92,15.92,0,0,1-2,5,25.33,25.33,0,0,1-3.25,4c-2.33,2.45-4.76,4.67-6.14,7.43a11.35,11.35,0,0,0-1.3,4.22,7.74,7.74,0,0,0,.11,2.1,7,7,0,0,0,.69,1.92,10.67,10.67,0,0,0,2.54,3c1,.82,2,1.53,2.92,2.23a12.77,12.77,0,0,1,4.27,4.69,5.19,5.19,0,0,1,.47,2.59,5.46,5.46,0,0,1-.67,2.11,4.42,4.42,0,0,1-1.15,1.34,3.24,3.24,0,0,1-1.17.56,2.16,2.16,0,0,1-.79.07Z"/><path class="cls-14" d="M197.54,228.08l-.3-.08a2.22,2.22,0,0,1-.76-.51,3.94,3.94,0,0,1-.89-3.32c.18-1.58,1.39-3.11,2.36-5a7.65,7.65,0,0,0,.8-3.26,10.73,10.73,0,0,0-.73-3.72,21.19,21.19,0,0,0-1.94-3.74c-.78-1.24-1.72-2.46-2.61-3.79a24.28,24.28,0,0,1-2.42-4.35,9.75,9.75,0,0,1-.71-5.24,10.08,10.08,0,0,1,2.51-5c1.23-1.45,2.67-2.72,4-4.11a17.58,17.58,0,0,0,3.4-4.76,21.64,21.64,0,0,0,1.7-5.79,81.37,81.37,0,0,0,.51-12c0-2,.06-3.88.22-5.76.05-.47.1-.94.14-1.4l.24-1.38a21.09,21.09,0,0,1,.58-2.67,34.47,34.47,0,0,1,9.83-16.16,37.27,37.27,0,0,1,5.88-4.39c.95-.51,1.82-1,2.67-1.4s1.61-.74,2.33-1l1.91-.66c.56-.16,1.05-.26,1.43-.36l.89-.21.3-.05-.29.1-.87.26c-.38.11-.86.23-1.42.4l-1.88.7c-.71.25-1.46.64-2.3,1s-1.69.91-2.63,1.43a37.18,37.18,0,0,0-5.78,4.41,34.25,34.25,0,0,0-9.63,16,20.61,20.61,0,0,0-.57,2.64c-.07.45-.15.9-.22,1.36s-.09.92-.14,1.38c-.16,1.86-.21,3.77-.21,5.72a80.2,80.2,0,0,1-.51,12.09,21.73,21.73,0,0,1-1.74,5.92,18.07,18.07,0,0,1-3.49,4.88c-1.37,1.41-2.81,2.67-4,4.08a9.73,9.73,0,0,0-2.43,4.73,9.38,9.38,0,0,0,.68,5,23.53,23.53,0,0,0,2.35,4.28c.87,1.32,1.81,2.55,2.59,3.82a21.48,21.48,0,0,1,1.94,3.82,10.85,10.85,0,0,1,.72,3.84,7.82,7.82,0,0,1-.86,3.38c-1,1.91-2.22,3.39-2.43,4.9a3.88,3.88,0,0,0,.78,3.22A2.74,2.74,0,0,0,197.54,228.08Z"/><path class="cls-14" d="M264.14,159.91a2.34,2.34,0,0,1-.31-.39l-.82-1.15-2.93-4.3-9.52-14.26a36.88,36.88,0,0,0-6.07-7.11,17.8,17.8,0,0,0-6.62-3.67,13.15,13.15,0,0,0-5.09-.47c-1.21.15-1.85.38-1.87.33a1.83,1.83,0,0,1,.46-.18,8.25,8.25,0,0,1,1.39-.34,12.47,12.47,0,0,1,5.2.33,17.64,17.64,0,0,1,6.82,3.65,35.71,35.71,0,0,1,6.18,7.18c3.74,5.58,7,10.67,9.41,14.35,1.16,1.8,2.1,3.29,2.8,4.38l.74,1.21C264.08,159.75,264.16,159.9,264.14,159.91Z"/><polygon class="cls-7" points="224.02 217.82 236.22 270.28 246.93 268.39 238.35 215.36 224.02 217.82"/><path class="cls-7" d="M234.94,211.07c3.5-1.15,4.53-7.3,4.53-11,0-5-4.41-7.47-8.06-8a9.21,9.21,0,0,0-9.16,4.88,9.77,9.77,0,0,0,1.17,10.38,10.47,10.47,0,0,0,9.93,3.51"/><polygon class="cls-4" points="216.04 208.65 218.84 230.37 251.62 223.38 245.87 204.01 216.04 208.65"/><g class="cls-6"><polygon class="cls-9" points="247.47 209.4 224.02 212.53 226.49 221.44 249.78 217.19 247.47 209.4"/></g><path class="cls-9" d="M239.46,200.6a14.15,14.15,0,0,1-2.64.49c-1.65.22-3.94.47-6.47.64s-4.83.21-6.49.19a13.93,13.93,0,0,1-2.69-.14,15.36,15.36,0,0,1,2.68-.2c1.66-.08,4-.18,6.47-.35s4.8-.35,6.46-.49A15.28,15.28,0,0,1,239.46,200.6Z"/><polygon class="cls-7" points="226.55 228.72 240.05 225.85 240.05 227.17 226.79 229.72 226.55 228.72"/><path class="cls-12" d="M204.63,257.86l5.82-3.06s9.67-20.55,12.34-21.63c2.2-.89,14.69-4.63,19-5.93a1.58,1.58,0,0,1,2,1h0a1.57,1.57,0,0,1-1,2l-14.53,5.14.29,1.21,14.79-4.38c1.54-.35,3.24,1.73-1.43,3.64l-12.18,4.27.23.76,13-2.13c.66-.11,2.42-.3,2.63.33,0,0,1.24,1.33-2.18,2.88-1.17.54-12.13,3.54-12.13,3.54l.72.85,12-1.07a1.69,1.69,0,0,1,1.8,1.4h0a1.67,1.67,0,0,1-1.31,1.9l-12.34,2.61L225.53,261a11.18,11.18,0,0,1-5.92,4.39l-12,3.73Z"/><path class="cls-15" d="M241.83,227.24s-.14.08-.42.18l-1.24.44-4.58,1.5-6.81,2.18-4,1.27-1.06.33-.53.17a1.66,1.66,0,0,0-.48.19,6.38,6.38,0,0,0-1.52,1.58,66.71,66.71,0,0,0-4.48,7.47c-1.27,2.37-2.36,4.54-3.27,6.36s-1.6,3.23-2.13,4.32l-.59,1.17c-.14.27-.22.41-.24.4a2.12,2.12,0,0,1,.15-.44l.5-1.21c.45-1.05,1.13-2.55,2-4.39s1.93-4,3.18-6.42a61.28,61.28,0,0,1,4.49-7.56,6.94,6.94,0,0,1,1.67-1.71,2.23,2.23,0,0,1,.56-.22l.54-.17,1.06-.33,4-1.24,6.85-2.08,4.63-1.36,1.26-.34A1.3,1.3,0,0,1,241.83,227.24Z"/><path class="cls-5" d="M139.12,334.12h0a21.67,21.67,0,0,0,31.81-2l51-62.93-18.15-23-64,56A21.66,21.66,0,0,0,139.12,334.12Z"/><path class="cls-7" d="M173.93,329.51s.07-.11.22-.31l.68-.89,2.68-3.43,10-12.7L221.77,269v.3c-4.05-5.12-8.26-10.46-12.58-15.94l-5.57-7.07.35,0c-18.64,16.4-34.89,31.4-46.74,42-5.92,5.31-10.7,9.56-14,12.46l-3.83,3.32-1,.85c-.23.19-.36.28-.36.28l.32-.31,1-.89,3.77-3.39L157,288.08c11.79-10.66,28-25.69,46.64-42.1l.19-.18.16.21,5.58,7.07L222.15,269l.12.15-.12.14-34.38,43.05L177.64,325l-2.74,3.37-.72.87C174,329.42,173.93,329.51,173.93,329.51Z"/><path class="cls-13" d="M180.4,320.74a4.86,4.86,0,0,1-1.29,1.54A8.44,8.44,0,0,1,174,324a12.46,12.46,0,0,1-3.77-.46,21.44,21.44,0,0,1-4-1.66c-2.72-1.39-5.47-3.34-8.78-4.39a23.07,23.07,0,0,0-9.66-.91,24.48,24.48,0,0,0-7.63,2.24,23.32,23.32,0,0,0-4.55,2.9c-1,.83-1.48,1.32-1.51,1.29s.1-.15.33-.39.57-.62,1.06-1.05a22,22,0,0,1,4.51-3.06,24.09,24.09,0,0,1,7.74-2.38,23,23,0,0,1,9.86.89c3.4,1.08,6.17,3.07,8.84,4.45a21.63,21.63,0,0,0,3.91,1.68,12.36,12.36,0,0,0,3.65.5,8.42,8.42,0,0,0,5-1.56A12.23,12.23,0,0,0,180.4,320.74Z"/><path class="cls-13" d="M205.66,288.82a2.26,2.26,0,0,1-.38.3,10.51,10.51,0,0,1-1.18.71,13.33,13.33,0,0,1-4.86,1.44,13.65,13.65,0,0,1-7.38-1.37c-2.59-1.23-5-3.21-7.82-4.81a24.8,24.8,0,0,0-8.56-2.89,25.72,25.72,0,0,0-7.4,0,24.79,24.79,0,0,0-4.87,1.19c-1.12.4-1.73.66-1.74.62s.13-.1.42-.24a12.07,12.07,0,0,1,1.25-.56,22.89,22.89,0,0,1,4.88-1.36,25.25,25.25,0,0,1,7.53-.1,24.77,24.77,0,0,1,8.73,2.91c2.85,1.64,5.26,3.61,7.78,4.83a13.46,13.46,0,0,0,7.15,1.43,13.82,13.82,0,0,0,4.81-1.26C205.09,289.16,205.63,288.78,205.66,288.82Z"/><path class="cls-15" d="M348.11,234.38a5.31,5.31,0,0,1-.28,1.1c-.22.7-.56,1.71-1,2.93s-1.09,2.67-1.85,4.23A6.88,6.88,0,0,1,343.4,245a2.09,2.09,0,0,1-1.48.53,2.05,2.05,0,0,1-1.45-.75,3,3,0,0,1-.66-1.45,4,4,0,0,1,.09-1.52,15.35,15.35,0,0,1,1-2.56c.72-1.54,1.38-2.95,1.94-4.17l1.35-2.79a5.13,5.13,0,0,1,.55-1,4.67,4.67,0,0,1-.38,1.07c-.32.77-.72,1.73-1.2,2.86l-1.84,4.22a15.76,15.76,0,0,0-1,2.48,3.79,3.79,0,0,0-.08,1.34,2.42,2.42,0,0,0,.56,1.2,1.6,1.6,0,0,0,1.1.59,1.63,1.63,0,0,0,1.14-.42,6.47,6.47,0,0,0,1.45-2.16c.78-1.54,1.42-3,1.93-4.16s.91-2.18,1.18-2.86A4.56,4.56,0,0,1,348.11,234.38Z"/><path class="cls-15" d="M344.49,247.7c0,.06-.65-.17-1.74-.22a7,7,0,0,0-4.13,1.16l-.39.27,0-.48a19.66,19.66,0,0,0,0-2.66,21.56,21.56,0,0,0-1.32-6.1c-.56-1.51-1.05-2.39-1-2.43a8,8,0,0,1,1.3,2.3,18.65,18.65,0,0,1,1.49,6.2,18.86,18.86,0,0,1,0,2.72l-.36-.21a6.81,6.81,0,0,1,4.42-1.06A3.47,3.47,0,0,1,344.49,247.7Z"/><path class="cls-15" d="M351.34,239.62a3.53,3.53,0,0,1-.28.88c-.21.55-.53,1.34-.94,2.32l-.67,1.59a8.59,8.59,0,0,1-.93,1.8,2.92,2.92,0,0,1-1.95,1.25,1.84,1.84,0,0,1-1.27-.24,2,2,0,0,1-.84-1,4.67,4.67,0,0,1-.1-2.45,13.21,13.21,0,0,1,.59-2.15,30.46,30.46,0,0,1,1.54-3.4c.45-.86.83-1.6,1.15-2.23s.43-.81.47-.79a19.09,19.09,0,0,1-1.31,3.17c-.43,1-1,2.09-1.42,3.4a13.19,13.19,0,0,0-.55,2.08,4.43,4.43,0,0,0,.09,2.2,1.45,1.45,0,0,0,1.59,1,2.5,2.5,0,0,0,1.64-1.05,9.07,9.07,0,0,0,.93-1.69c.25-.56.5-1.08.72-1.57.45-1,.82-1.73,1.08-2.26A3.31,3.31,0,0,1,351.34,239.62Z"/></g></svg>