<svg id="Layer_1" data-name="Layer 1" xmlns="http://www.w3.org/2000/svg" viewBox="0 0 424.27 301"><defs><style>.cls-1{fill:#09d8c4;}.cls-2{fill:#1a2e35;}.cls-3{fill:#ed776a;}.cls-4{fill:#0aa592;}.cls-5{fill:#ececec;}.cls-6{fill:#2b454e;}.cls-7{fill:#fff;}.cls-8{fill:none;}.cls-9{fill:#ffc800;}.cls-10{fill:#375a64;}.cls-11{fill:#dcdcdc;}.cls-12{fill:#ff9cbf;}</style></defs><title>produk-baru</title><circle class="cls-1" cx="151.4" cy="150.5" r="129.97" transform="translate(-62.08 151.13) rotate(-45)"/><path class="cls-1" d="M151.4,301C68.41,301,.9,233.49.9,150.5S68.41,0,151.4,0,301.9,67.51,301.9,150.5,234.38,301,151.4,301Zm0-293.63C72.48,7.37,8.27,71.58,8.27,150.5S72.48,293.63,151.4,293.63,294.52,229.42,294.52,150.5,230.32,7.37,151.4,7.37Z"/><path class="cls-2" d="M127,167.78c13,14.08,34.33,18.39,52.72,18.32,18.74-.08,39.61-3.28,55.9-13.12,7.14-4.3,13.57-10.29,17.37-17.78,4.1-8,4.09-16.18-1.39-23.06-4.42-5.56-13.48-9.12-13.87-14.46s3.65-9.86,4.5-15.08c1.44-8.92-3.74-15.16-10.22-20.43-15.35-12.53-12.68-30.63-22.7-46.82-5.7-9.2-21.17-25.84-46.09-16C153.7,23,147.68,32.4,144.37,41.88c-3.88,11.15.42,25.17-4.53,36C135.6,87.06,128.6,89,124.61,98.62c-1.73,4.17-2.37,8.95,2.57,18.19,1.78,3.34,3.79,8.49,2.66,12.69-1.58,5.82-8.07,8.89-9.86,15C117.53,152.84,121.21,161.57,127,167.78Z"/><path class="cls-2" d="M247.43,157.85c8.64-2.06,11.54-14.49,5.56-20.32-3.79-3.7-9.19-5.15-13-8.83-6.24-6-1.49-12.24,1.19-18.8,5.81-14.23-4.11-22.85-14.49-30.66-7.88-5.92-9.91-13.2-11.07-22.66,0-.15.23-.19.25,0,1.19,6.94,2.64,13.74,7.87,18.87,4.25,4.17,9.7,6.84,13.84,11.18,6.94,7.29,8.32,15.63,4.44,24.79-1.11,2.62-3.36,5.68-3.69,8.49-.76,6.62,4.35,9.64,9.2,12.53,3.73,2.22,7.85,4.68,9.5,8.95,2.49,6.45-2.73,15.82-9.46,17C247.24,158.43,247.08,157.93,247.43,157.85Z"/><path class="cls-2" d="M243.14,164.86c5.13-3.67,10.74-7.06,13.48-13,4.06-8.81-2.23-14.79-8.11-20.4C246,129,243.84,126.6,243.7,123c-.22-5.46,3.39-10.31,3.64-15.76.61-13-12.55-19.87-19.59-28.85C220.56,69.16,217.63,58,214.45,47c-.06-.23.3-.34.36-.1,4.15,14,9.3,27.11,20.1,37.37,7.52,7.16,15.55,14.92,13.13,26.24-.59,2.79-2,5.38-2.54,8.16-1.06,5.51.65,8.91,4.47,12.52s7.89,7,8.92,12.21c2,10.15-7.62,17.69-15.27,22.21A.45.45,0,0,1,243.14,164.86Z"/><path class="cls-2" d="M117.4,141.43c3.84-6.56,10.49-10.21,7.95-19-1.75-6-5.44-10.64-4.76-17.22.57-5.45,3.64-9.89,7.37-13.75,4.74-4.9,10.09-9,13.32-15.14,3.53-6.71,4.74-14.35,6-21.72,0-.14.28-.11.27,0-1.17,10-2.75,20.25-9.5,28.2-3.53,4.14-8,7.43-11.44,11.61-6.26,7.53-5.55,15.16-1.86,23.61,1.69,3.88,3.23,7.78,1.77,12s-5.09,7.06-7.49,10.69c-10.16,15.41,8.9,32.27,23.59,33.68.66.07.67,1.08,0,1-11-.73-23.25-9.65-26.57-20.19A17.24,17.24,0,0,1,117.4,141.43Z"/><path class="cls-2" d="M118.55,149.12c-.45-6.48,3.24-10.41,5.9-15.75,4.17-8.41-1.57-15.84-2.91-24.22-.93-5.83,1-11,4.22-15.61,4.34-6.2,10.18-10.85,13.57-17.81a42.28,42.28,0,0,0,3.71-24c0-.16.21-.16.23,0,1.85,11.47-.72,22.62-7.65,31.54-4.4,5.66-10.58,10.5-12.67,17.78-2.22,7.71,2.12,14.19,3.78,21.52a16.66,16.66,0,0,1-2,12.78c-1.71,2.94-3.88,5.68-4.68,9.13-1.07,4.65.35,9.61,2.56,13.75,7,13.09,22,20.38,35.71,21.39.48,0,.51.82,0,.79a47.3,47.3,0,0,1-32.64-16C122,160.23,119,154.86,118.55,149.12Z"/><path class="cls-3" d="M171.47,139.25c10.22,41.59,35,106.19,56.88,105.85,20-.32,64.56-35.75,83.22-47.35s-23.21-57.36-33.91-49.95c-16.59,11.47-41.41,31.94-45.6,30.6-5.23-1.68-11.88-14.53-41.69-52.45C178.18,110.44,167.12,121.55,171.47,139.25Z"/><path class="cls-3" d="M297.73,130.17c8.81-3.11,18.65-7.39,28.43-7.2s17.9,13.09,17.9,16.79-3.69,26.75-13.47,26.75-3.88-17.71-4.25-19.74-.73-4.63-2.58-4.43-34.14,15.5-34.14,15.5Z"/><path class="cls-3" d="M298.36,131.52c.55,0,26.75-10.34,36.53-10.15s17.9,13.09,17.9,16.79-3.69,26.75-13.47,26.75-3.87-17.71-4.24-19.74-.74-4.62-2.59-4.43-34.13,15.5-34.13,15.5Z"/><path class="cls-2" d="M336,163.68c-1.2-1.55-1.41-3.88-1.63-5.78a20.2,20.2,0,0,1,.36-6.25c.36-1.78,1.12-3.55,1.19-5.38a10.79,10.79,0,0,0-1.37-5.17c-.75-1.37-2.19-.9-3.42-.46a49.75,49.75,0,0,0-5.32,2.4c-1.87.93-3.72,1.9-5.57,2.85a52.09,52.09,0,0,0-5.68,3.12c-.13.09,0,.33.12.27a50.08,50.08,0,0,0,5-2.23c1.86-.87,3.72-1.73,5.6-2.56s3.46-1.66,5.22-2.4c.62-.27,1.87-.94,2.58-.78s1.11,2,1.28,2.6a9.19,9.19,0,0,1-.34,5.29,27.11,27.11,0,0,0-1,5.36,14.09,14.09,0,0,0,.41,5.09,19.94,19.94,0,0,0,2.33,4.21C335.82,164.05,336.14,163.85,336,163.68Z"/><path class="cls-3" d="M267.34,157.19s27.1-24.7,32.74-29.61c11.32-9.84,59-29.31,65.63-30s9,12.92-23.31,27.07c-17.06,7.45-20.09,17.22-19.76,22.63s5.49,15.5,14.59,15.26,15-13.54,23.37-15,2.84,13.85-3.06,22.71-16.62,16.16-24.49,19.11-32.24,13.45-32.24,13.45Z"/><path class="cls-2" d="M348.53,156.12c-3.43,2.65-7.32,6.09-11.83,6.26s-7.69-2.85-9.85-6.65-3.46-8.21-2.39-12.59a21.12,21.12,0,0,1,6.23-10.21A51.34,51.34,0,0,1,343,124.72c.19-.1,0-.39-.19-.29-4.19,1.87-17.21,7.2-19.82,18.71-1.07,4.7.35,8.89,2.54,12.83,2,3.62,4.95,7.12,9.36,7.47,5.38.44,10-3.93,13.87-7.2C349,156.1,348.7,156,348.53,156.12Z"/><path class="cls-4" d="M267.34,153.73l40.54,62.93s-64.32,36-82.52,30.23-45.68-58-57-103.75S185.14,114.9,196,129s34.58,46.85,35.87,46.42S267.34,153.73,267.34,153.73Z"/><path class="cls-5" d="M289.41,226.33c-4,2-8.39,4.14-13,6.27l-35.14-62.73c3.73-2.26,8-5,12.11-7.46C264.46,182,277.91,205.86,289.41,226.33Z"/><path class="cls-5" d="M271.42,234.87c-1.4.62-2.82,1.25-4.24,1.84l-34.61-61.59c.78-.44,2.13-1.24,3.86-2.28C247.33,192.1,260.29,215.08,271.42,234.87Z"/><path class="cls-2" d="M262.55,238.64c-14.65,6-29,10.32-36.54,8.43-.24,0-.44-.13-.65-.18-18.19-5.82-45.68-58-57-103.75-2-8.15-2.77-14.31-2.62-18.81,0-.23,0-.44,0-.67s.05-.73.1-1.09a3.49,3.49,0,0,1,0-.44c0-.34.08-.67.13-1Z"/><path class="cls-2" d="M285.24,210.48c-1.28-2.24-2.58-4.46-3.88-6.68C278.74,199.36,263,173,256.84,165c-.17-.22-.49,0-.38.26,4.32,9.21,20.6,35.08,23.31,39.35q2.07,3.27,4.19,6.52c1.42,2.18,3.09,4.18,4.5,6.36.14.22.49,0,.36-.18C287.53,215.09,286.52,212.71,285.24,210.48Z"/><path class="cls-4" d="M214.56,213.69l6.76,46.38A130,130,0,0,1,85.43,262.5c6.81-35.41,23.25-103.91,53.42-138.74,5-5.8,22.11-21.51,43.62-3.58,10.5,8.75,35.68,45.8,38.89,61.15S214.56,213.69,214.56,213.69Z"/><path class="cls-2" d="M194.58,210.12a84.66,84.66,0,0,0-21.92,3.66c-7.15,2-23,8.29-26.94,9.83-.09,0-.05.19.05.16A136.16,136.16,0,0,0,161,219.19c7-2.39,14.09-4.55,21.27-6.41a98.91,98.91,0,0,1,12.33-2.22A.22.22,0,0,0,194.58,210.12Z"/><path class="cls-2" d="M207.64,213.89a68,68,0,0,0-23,2.05c-.08,0-.06.17,0,.16,3.82-.45,7.62-.9,11.45-1.22s7.71-.52,11.56-.78C207.79,214.09,207.77,213.91,207.64,213.89Z"/><path class="cls-2" d="M215.59,165.54a55.66,55.66,0,0,0-4.24-10.91s-.11,0-.08.05a79.69,79.69,0,0,1,3.58,9.49A128.74,128.74,0,0,0,206,150.61a.06.06,0,0,0-.1.07c9,15,18,32.3,13.7,50.29a39.34,39.34,0,0,1-2.13,6.54,31.4,31.4,0,0,1-3.38,6.38c-.12.15.45.75.58.6a33.64,33.64,0,0,0,3.46-5.13,31.46,31.46,0,0,0,2.65-5.78,37.91,37.91,0,0,0,1.88-12.73C222.56,182,219.7,173.36,215.59,165.54Z"/><path class="cls-3" d="M133.06,158.89c7.22,42.39,42.82,121.69,66,129.15,26.84,8.64,120-21.15,138.32-34.54,7.27-5.33-31.52-52.28-40.58-48.95-37.94,14-71.58,21.13-76.46,17.81-7.51-5.1-38.12-49-58-76.16C137.33,112,129.82,139.87,133.06,158.89Z"/><path class="cls-3" d="M335,254.77c4.15-1.48,32.7-22.19,41.11-31.92a124.64,124.64,0,0,0,21.94-34c8.47-19.72,12.45-34.16,10.41-40.62-2.37-7.52-3-8.74-22.78,24-11.16,18.52-21.81,20.6-31,20.43C316.76,191.92,289,207.3,289,207.3S319,260.46,335,254.77Z"/><path class="cls-6" d="M422.59,123.71l-49.28,62.2a5.91,5.91,0,0,1-6,2L333,176.43c-1.92-.64-2.38-2.56-1-4.27L381.25,110A5.85,5.85,0,0,1,387.2,108l34.37,11.43C423.49,120.08,424,122,422.59,123.71Z"/><path class="cls-2" d="M418.49,118.41,384.12,107a5.86,5.86,0,0,0-5.95,2l-49.29,62.2c-1.36,1.71-.91,3.63,1,4.27l34.38,11.43a5.85,5.85,0,0,0,5.94-2l49.29-62.19C420.87,121,420.41,119.05,418.49,118.41Zm-48.93,63.82a5.42,5.42,0,0,1-5.46,1.92l-30.75-10.22c-1.72-.58-2.07-2.37-.77-4L378.48,112c2.64-3.33,4.16-3,5.89-2.46l6.16,2c.35.12.36.58,0,1l-.15.19c-.82,1-.18,1.26.62,1.52l14.24,4.74a1.67,1.67,0,0,0,2.27-.56l.15-.19a1.36,1.36,0,0,1,1.29-.59l6.16,2c1.72.57,2.76,1.48.34,4.53Z"/><path class="cls-7" d="M401.1,116.05l-3.89-1.29a.17.17,0,0,1-.07-.29h0a.39.39,0,0,1,.41-.13l3.88,1.29c.14,0,.17.17.08.29h0A.43.43,0,0,1,401.1,116.05Z"/><line class="cls-8" x1="335.49" y1="166.26" x2="335.37" y2="166.22"/><path class="cls-7" d="M415.46,124.31l-45.89,57.92a5.45,5.45,0,0,1-5.47,1.92l-30.75-10.22c-1.72-.58-2.07-2.37-.77-4L378.48,112c2.64-3.33,4.16-3,5.89-2.46l6.16,2c.35.12.36.58,0,1l-.15.19c-.82,1-.18,1.26.62,1.52l14.24,4.74a1.66,1.66,0,0,0,2.27-.56l.15-.19a1.36,1.36,0,0,1,1.29-.59l6.16,2C416.84,120.35,417.88,121.26,415.46,124.31Z"/><path class="cls-9" d="M415.46,124.31,412,128.64l-37-12.31,3.43-4.32c2.64-3.33,4.16-3,5.89-2.46l6.16,2c.35.12.36.58,0,1l-.15.19c-.82,1-.18,1.26.62,1.52l14.24,4.74a1.66,1.66,0,0,0,2.27-.56l.15-.19a1.36,1.36,0,0,1,1.29-.59l6.16,2C416.84,120.35,417.88,121.26,415.46,124.31Z"/><polygon class="cls-7" points="380.47 115.47 380.09 114.21 381.89 113.67 381.94 113.89 380.45 114.33 380.76 115.37 380.47 115.47"/><path class="cls-7" d="M412.07,124.37a.36.36,0,0,1-.37.12c-.12,0-.14-.15-.06-.26a.36.36,0,0,1,.36-.12A.15.15,0,0,1,412.07,124.37Z"/><path class="cls-7" d="M411.53,125.05a.35.35,0,0,1-.36.11c-.12,0-.15-.15-.06-.26a.35.35,0,0,1,.36-.11C411.59,124.82,411.62,124.94,411.53,125.05Z"/><path class="cls-7" d="M411,125.72a.38.38,0,0,1-.36.12.16.16,0,0,1-.07-.27.37.37,0,0,1,.37-.11C411.06,125.5,411.09,125.61,411,125.72Z"/><g id="u5Zjqx"><path class="cls-7" d="M388.43,112.55l-.1,0-.06,0a.56.56,0,0,0-.4-.4,1.25,1.25,0,0,0-.74,0v0l0-.07h0l.12,0,.25,0a.87.87,0,0,1,.28,0l.13,0,.1,0,.08,0,.17.11a.52.52,0,0,1,.1.11.54.54,0,0,1,.07.13.14.14,0,0,1,0,.07Z"/><path class="cls-7" d="M387.19,112.45l0-.12a1.13,1.13,0,0,1,.51,0,.53.53,0,0,1,.45.36l-.16,0a.4.4,0,0,0-.28-.27A.76.76,0,0,0,387.19,112.45Z"/><path class="cls-7" d="M387.8,112.75l-.16,0a.2.2,0,0,0-.14-.13.39.39,0,0,0-.26,0l0-.11C387.47,112.47,387.75,112.55,387.8,112.75Z"/><path class="cls-7" d="M387.47,112.84a.17.17,0,0,1-.15,0,.07.07,0,0,1,0-.11.12.12,0,0,1,.14,0C387.49,112.75,387.5,112.8,387.47,112.84Z"/></g><path class="cls-7" d="M382.5,110.78a.43.43,0,0,1,.42-.14.18.18,0,0,1,.07.3.39.39,0,0,1-.41.13C382.44,111,382.41,110.9,382.5,110.78Z"/><path class="cls-7" d="M383.28,111a.39.39,0,0,1,.41-.13.18.18,0,0,1,.08.3.4.4,0,0,1-.42.13C383.21,111.29,383.18,111.15,383.28,111Z"/><path class="cls-7" d="M384.05,111.29a.39.39,0,0,1,.41-.13c.14,0,.17.17.08.29a.43.43,0,0,1-.42.14A.18.18,0,0,1,384.05,111.29Z"/><path class="cls-7" d="M384.82,111.55a.42.42,0,0,1,.42-.14.18.18,0,0,1,.07.3.4.4,0,0,1-.42.13C384.76,111.8,384.73,111.67,384.82,111.55Z"/><path class="cls-7" d="M385.59,111.8a.42.42,0,0,1,.42-.13.18.18,0,0,1,.07.3.39.39,0,0,1-.41.13A.18.18,0,0,1,385.59,111.8Z"/><polygon class="cls-7" points="414.07 122.3 411.25 121.36 412.43 119.87 415.26 120.81 414.07 122.3"/><polygon class="cls-7" points="413.92 120.97 412.63 120.54 412.21 121.08 413.5 121.5 413.92 120.97"/><polygon class="cls-7" points="414.26 121.69 414.08 121.64 414.43 121.2 414.6 121.26 414.26 121.69"/><polygon class="cls-5" points="338.66 171.22 338.38 171.12 337.48 172.26 336.95 172.08 337.41 171.5 336.48 171.2 336.02 171.77 335.5 171.6 336.4 170.46 336.12 170.37 338.3 169.64 338.66 171.22"/><polygon class="cls-5" points="367.56 179.86 364.5 178.84 364.8 178.45 367.87 179.47 367.56 179.86"/><polygon class="cls-5" points="366.81 180.81 363.74 179.79 364.05 179.4 367.11 180.42 366.81 180.81"/><polygon class="cls-5" points="366.05 181.76 362.99 180.74 363.29 180.36 366.36 181.38 366.05 181.76"/><polygon class="cls-5" points="352.53 175.63 351.01 176.15 350.79 175.05 351.04 174.97 351.23 175.88 352.48 175.45 352.53 175.63"/><path class="cls-5" d="M351,177.92a2.89,2.89,0,0,1-.88-.14,2,2,0,0,1-1.33-1.3,2.12,2.12,0,0,1,.45-1.94,3.37,3.37,0,0,1,3.52-1.11,2,2,0,0,1,1.32,1.3,2.14,2.14,0,0,1-.44,1.94h0A3.44,3.44,0,0,1,351,177.92Zm.83-2.75a1.49,1.49,0,0,0-1.15.52c-.12.15-.13.25-.12.26a1.5,1.5,0,0,0,1.63-.42.56.56,0,0,0,.13-.27A1.41,1.41,0,0,0,351.84,175.17Z"/><path class="cls-7" d="M392.34,118.66a1.69,1.69,0,0,1,1.68-.53.79.79,0,0,1,.48.4c0,.07,0,.16-.12.2s-.21,0-.24,0a.51.51,0,0,0-.33-.27,1,1,0,0,0-.63,0,1,1,0,0,0-.53.35.54.54,0,0,0-.13.48.51.51,0,0,0,.35.33,1,1,0,0,0,.55,0,.15.15,0,0,1,.19.1c0,.07-.08.15-.18.18a1.43,1.43,0,0,1-.77,0A.7.7,0,0,1,392.34,118.66Z"/><path class="cls-7" d="M394,120.12l1.11-1.41a.24.24,0,0,1,.26-.08c.08,0,.1.1.05.18l-.46.57.7.24.46-.58a.25.25,0,0,1,.25-.08.1.1,0,0,1,.05.18l-1.12,1.41a.23.23,0,0,1-.25.08c-.09,0-.11-.1-.05-.18l.46-.57-.71-.24-.45.58a.26.26,0,0,1-.26.08A.11.11,0,0,1,394,120.12Z"/><path class="cls-7" d="M396.88,120.76l-.66-.22-.38.27a.27.27,0,0,1-.21,0l-.05,0c-.05,0,0-.14.05-.2l1.72-1.21a.23.23,0,0,1,.21,0,.1.1,0,0,1,.07.14l-.51,1.6a.25.25,0,0,1-.23.14s0,0-.05,0a.1.1,0,0,1-.08-.13Zm.09-.3.19-.59-.63.44Z"/><path class="cls-7" d="M399.36,120.31l-.43-.15-1,1.28a.26.26,0,0,1-.26.08.11.11,0,0,1,0-.18l1-1.28-.43-.14a.11.11,0,0,1-.05-.18.26.26,0,0,1,.26-.09l1.16.39a.11.11,0,0,1,0,.18A.27.27,0,0,1,399.36,120.31Z"/><polygon class="cls-10" points="359.94 141.86 386.39 150.65 392.17 143.35 365.72 134.56 365.72 134.56 359.94 141.86 359.94 141.86"/><polygon class="cls-10" points="388.83 151.47 386.39 150.65 388.16 148.41 388.83 151.47"/><polygon class="cls-7" points="389.55 144.25 366.13 136.46 366.24 136.32 389.65 144.11 389.55 144.25"/><polygon class="cls-7" points="384.09 143.38 365.53 137.21 365.64 137.07 384.2 143.24 384.09 143.38"/><polygon class="cls-7" points="385.84 145.86 364.34 138.71 364.45 138.57 385.95 145.72 385.84 145.86"/><polygon class="cls-7" points="387.17 147.25 363.75 139.46 363.86 139.32 387.28 147.11 387.17 147.25"/><polygon class="cls-7" points="386.58 148 363.16 140.21 363.27 140.07 386.69 147.86 386.58 148"/><polygon class="cls-7" points="379.5 146.59 362.56 140.96 362.67 140.82 379.61 146.45 379.5 146.59"/><polygon class="cls-10" points="346.27 159.1 372.72 167.89 378.51 160.59 352.06 151.8 352.06 151.8 346.27 159.1 346.27 159.1"/><polygon class="cls-10" points="375.17 168.71 372.72 167.89 374.5 165.65 375.17 168.71"/><polygon class="cls-7" points="375.88 161.49 352.46 153.7 352.57 153.56 375.99 161.35 375.88 161.49"/><polygon class="cls-7" points="370.43 160.62 351.87 154.45 351.98 154.31 370.54 160.48 370.43 160.62"/><polygon class="cls-7" points="372.18 163.1 350.68 155.95 350.79 155.81 372.29 162.96 372.18 163.1"/><polygon class="cls-7" points="373.51 164.49 350.09 156.7 350.2 156.56 373.62 164.35 373.51 164.49"/><polygon class="cls-7" points="372.92 165.24 349.49 157.45 349.6 157.31 373.02 165.1 372.92 165.24"/><polygon class="cls-7" points="365.83 163.83 348.9 158.19 349.01 158.06 365.94 163.69 365.83 163.83"/><polygon class="cls-9" points="400.36 136.92 373.91 128.13 378.79 121.97 405.24 130.76 400.36 136.92"/><polygon class="cls-9" points="371.46 127.31 373.91 128.13 375.69 125.88 371.46 127.31"/><polygon class="cls-7" points="398.83 130.25 379.33 123.76 379.44 123.62 398.94 130.11 398.83 130.25"/><polygon class="cls-7" points="402.15 132.3 378.73 124.51 378.84 124.37 402.26 132.16 402.15 132.3"/><polygon class="cls-7" points="401.56 133.04 378.14 125.25 378.25 125.12 401.67 132.91 401.56 133.04"/><polygon class="cls-7" points="399.11 133.18 377.55 126 377.65 125.87 399.22 133.04 399.11 133.18"/><polygon class="cls-7" points="400.37 134.54 376.95 126.75 377.06 126.61 400.48 134.4 400.37 134.54"/><polygon class="cls-7" points="393.66 133.26 376.36 127.5 376.47 127.36 393.77 133.12 393.66 133.26"/><polygon class="cls-9" points="395.95 142.49 369.5 133.69 373.12 129.12 399.57 137.92 395.95 142.49"/><polygon class="cls-9" points="367.05 132.88 369.5 133.69 371.28 131.45 367.05 132.88"/><polygon class="cls-7" points="397.03 138.69 373.65 130.91 373.76 130.77 397.14 138.55 397.03 138.69"/><polygon class="cls-7" points="392.3 138.06 373.06 131.66 373.17 131.52 392.41 137.92 392.3 138.06"/><polygon class="cls-7" points="393.64 139.45 372.47 132.41 372.58 132.27 393.75 139.31 393.64 139.45"/><polygon class="cls-7" points="388.21 138.59 371.87 133.16 371.98 133.02 388.32 138.45 388.21 138.59"/><polygon class="cls-11" points="382.32 159.69 355.87 150.9 360.97 144.46 387.42 153.25 382.32 159.69"/><polygon class="cls-11" points="353.42 150.08 355.87 150.9 357.64 148.65 353.42 150.08"/><polygon class="cls-7" points="381.86 155.83 359.74 148.47 359.85 148.33 381.97 155.69 381.86 155.83"/><polygon class="cls-7" points="379.46 155.98 359.15 149.22 359.26 149.08 379.57 155.84 379.46 155.98"/><polygon class="cls-7" points="381.77 153.91 360.93 146.97 361.04 146.84 381.88 153.77 381.77 153.91"/><polygon class="cls-7" points="384.65 153.92 361.52 146.22 361.63 146.09 384.76 153.78 384.65 153.92"/><polygon class="cls-7" points="379.59 156.97 358.55 149.97 358.66 149.83 379.7 156.83 379.59 156.97"/><polygon class="cls-9" points="369.42 175.97 342.97 167.17 347.22 161.81 373.67 170.61 369.42 175.97"/><polygon class="cls-9" points="340.52 166.36 342.97 167.17 344.74 164.93 340.52 166.36"/><polygon class="cls-7" points="371.21 171.34 347.79 163.55 347.9 163.41 371.32 171.2 371.21 171.34"/><polygon class="cls-7" points="370.62 172.09 347.19 164.3 347.3 164.16 370.73 171.95 370.62 172.09"/><polygon class="cls-7" points="368.17 172.22 346.6 165.05 346.71 164.91 368.28 172.09 368.17 172.22"/><polygon class="cls-7" points="369.43 173.59 346.01 165.8 346.12 165.66 369.54 173.45 369.43 173.59"/><polygon class="cls-7" points="362.72 172.31 345.41 166.55 345.52 166.41 362.83 172.17 362.72 172.31"/><path class="cls-3" d="M359.22,192.48c-9.54.14,21.46-19.2,21.93-30S371,155,362.71,161.11c-28.95,21.27-50.79,20.23-65.46,40.56S359.22,192.48,359.22,192.48Z"/><path class="cls-2" d="M330.39,179.25c-6.18,1.74-12.26,3.74-17.83,7-5.19,3-9.24,7.36-12.89,12.06-.16.21.12.49.29.28,7.82-9.6,19.4-14.42,30.51-19.05C330.63,179.46,330.57,179.2,330.39,179.25Z"/><path class="cls-4" d="M222.38,219.74c7.41,2,59.07-12.16,59.07-12.16l29,70.2s-90,20.94-111,13.67-53.69-78.62-64.26-120.07c-9.94-39,3.31-64.41,31.13-24C166.4,147.34,218.5,218.69,222.38,219.74Z"/><path class="cls-5" d="M294,281.38c-5.8,1.19-12.73,2.59-20.24,4l-26.42-69.28c6.75-1.5,13.82-3.23,19.72-4.73C275.22,232.47,285.11,258.09,294,281.38Z"/><path class="cls-5" d="M265.93,286.79c-2.15.38-4.32.77-6.52,1.14l-26.34-69c2-.33,4.09-.72,6.31-1.16C247.38,238.5,257.08,263.68,265.93,286.79Z"/><path class="cls-2" d="M198.42,289.29c-17.6-9-39.29-56.17-43.47-65.42-2.67-5.93-5.11-12-7.51-18-4.79-12.09-9.21-24.32-13.41-36.63a.17.17,0,0,0-.33.1q3.47,14.25,8.32,28.17a105,105,0,0,1-5.75-10.72c-.08-.17-.38,0-.31.14a58.82,58.82,0,0,0,6.69,12.39q4.95,14,11.18,27.37c1.2,2.58,26.3,60.34,46,65.71,6.84,1.86,30.23.18,35.19-1,.22-.05.27-.31,0-.32C228.26,291,204.71,292.51,198.42,289.29Z"/><path class="cls-2" d="M291.05,269.28q-1.31-3.63-2.66-7.25c-1.79-4.84-12.62-33.54-17.32-42.51-.12-.24-.49-.06-.42.19,2.64,9.83,14.12,38.16,16,42.83,1,2.39,2,4.78,3,7.16s2.31,4.66,3.32,7.06c.1.23.47.13.38-.12C292.49,274.23,291.91,271.71,291.05,269.28Z"/><path class="cls-2" d="M281.46,207.7c-4.28.19-42.94,9.18-51.48,11.1-2,.45-4.22,1.19-6.31.86s-3.67-2.19-5.07-3.78c-2.76-3.18-33-43.15-35.19-45.11-.83-.74-1.48-.88-.7.38,1.34,2.16,30.74,41.63,33.41,44.73,2.48,2.89,4.81,5.92,9,5.75,1.84-.08,54-11.77,56.54-12.84C282.18,208.56,282.14,207.67,281.46,207.7Z"/><path class="cls-3" d="M158.28,118.18c.15,2.59,9.22,20.81,20.7,22.26,3.74.46,7.17-19.83,7.17-19.83l.6-1.44L195.08,99,173.19,78.93,170,76.22s-1.91,5.67-4.23,12.74c-.1.33-.21.66-.33,1s-.28.77-.39,1.15c-.36,1-.72,2.13-1.06,3.21-.26.82-.52,1.62-.76,2.49s-.51,1.71-.77,2.58C160,108,158.23,117.08,158.28,118.18Z"/><path class="cls-2" d="M165.76,89a43.75,43.75,0,0,0,21,30.21L195.08,99,173.19,78.93,170,76.22S168.08,81.89,165.76,89Z"/><path class="cls-3" d="M229.93,67c.47,38.28-22.4,42.88-30.65,43-7.5.08-33-.59-37.44-38.61S175.06,21,192.19,19.88,229.46,28.67,229.93,67Z"/><path class="cls-2" d="M223.86,59.15a25.27,25.27,0,0,1-2.55-.69,4.31,4.31,0,0,1-2.46-1.2,1.37,1.37,0,0,1,.09-1.66,3.36,3.36,0,0,1,3.37-.6,5,5,0,0,1,3,1.93A1.45,1.45,0,0,1,223.86,59.15Z"/><path class="cls-2" d="M198.3,58.91a25.67,25.67,0,0,0,2.61-.39,4.27,4.27,0,0,0,2.59-.91,1.37,1.37,0,0,0,.09-1.66,3.37,3.37,0,0,0-3.28-1,5,5,0,0,0-3.21,1.57A1.45,1.45,0,0,0,198.3,58.91Z"/><path class="cls-2" d="M203,68.31c0-.1-.2.11-.2.22,0,2.61-.46,5.59-2.84,6.38-.08,0-.07.15,0,.14C202.81,74.75,203.37,70.78,203,68.31Z"/><path class="cls-2" d="M200.72,65.51c-4.18-.47-4.79,7.92-.92,8.35S204.22,65.89,200.72,65.51Z"/><path class="cls-2" d="M199,65.83c-.77.42-1.55,1.2-2.44,1.23s-1.73-.91-2.34-1.81c-.06-.09-.14,0-.15.09-.14,1.61.36,3.3,2.06,3.67s2.79-1,3.31-2.6C199.58,66.12,199.35,65.66,199,65.83Z"/><path class="cls-2" d="M218.28,68.39c0-.1.19.14.18.24-.3,2.59-.2,5.61,2.08,6.67.07,0,.06.16,0,.14C217.68,74.8,217.58,70.8,218.28,68.39Z"/><path class="cls-2" d="M220.82,65.86c4.2,0,3.85,8.43,0,8.41S217.29,65.84,220.82,65.86Z"/><path class="cls-2" d="M222.55,66.49c.64.47,1.26,1.31,2.06,1.4s1.63-.79,2.26-1.63c.06-.09.12,0,.12.09,0,1.61-.62,3.26-2.18,3.51s-2.4-1.2-2.71-2.82C222,66.74,222.29,66.3,222.55,66.49Z"/><path class="cls-2" d="M201.73,88.68c.55.68,1.07,1.59,2,1.78a7,7,0,0,0,2.86-.32c.08,0,.16.07.09.14a3.5,3.5,0,0,1-3.45,1,2.78,2.78,0,0,1-1.76-2.53C201.45,88.61,201.65,88.58,201.73,88.68Z"/><path class="cls-2" d="M213.19,80s.29,3.91.18,5.75c0,.17-.46.22-1.08.22,0,0,0,0-.07,0A8.72,8.72,0,0,1,204,82.14c-.12-.18.12-.36.28-.23a13.22,13.22,0,0,0,7.82,2.77c.16-.5-.73-6.7-.44-6.7a15.65,15.65,0,0,1,4.1,1.2c-.38-8.18-2.07-16.24-2.33-24.39a.25.25,0,0,1,.49-.09c2.37,8.32,3,17.72,3.62,26.16C217.59,81.91,213.9,80.3,213.19,80Z"/><path class="cls-2" d="M212.07,85.22a10.69,10.69,0,0,1-4.36,3.19,4.86,4.86,0,0,1-2.93.1c-2.09-.61-2.09-2.55-1.66-4.2a12,12,0,0,1,1-2.51A13.86,13.86,0,0,0,212.07,85.22Z"/><path class="cls-12" d="M207.71,88.41a4.86,4.86,0,0,1-2.93.1c-2.09-.61-2.09-2.55-1.66-4.2C205.38,84.61,207.58,86.21,207.71,88.41Z"/><path class="cls-2" d="M161,69.81c6.35,1.17,9.25-12.1,9.25-12.1s13,1.42,19.3-16.84c0,0-1.21,8.69-7.41,14.87,0,0,23.21,0,34.92-18.17,0,0-4.9,9.37-8.88,12.47,0,0,9.91-1.67,15.44-9,0,0,2.84,11.51,5.6,14.9,0,0,3.33-40.26-34.33-39.95,0,0-23.46-.93-33.79,16.62S161,69.81,161,69.81Z"/><path class="cls-3" d="M166.77,71.83s-7.44-12.54-13.07-10-.65,20.31,5.52,23.14a6.47,6.47,0,0,0,8.91-2.82Z"/><path class="cls-2" d="M155.25,66.91c-.1,0-.13.13,0,.17,4.31,2.13,6.35,6.43,7.67,10.83-1.2-1.74-2.93-2.78-5.26-1.37-.12.08,0,.27.11.25A4,4,0,0,1,162,78.5a18.65,18.65,0,0,1,1.83,3.69c.18.42.92.26.8-.21l0-.11C165.12,76.2,161.3,67.94,155.25,66.91Z"/></svg>