<svg id="Layer_1" data-name="Layer 1" xmlns="http://www.w3.org/2000/svg" viewBox="0 0 424.27 301"><defs><style>.cls-1{fill:#ea1b33;}.cls-2{fill:#c36358;}.cls-3,.cls-8{fill:#1a2e35;}.cls-4{fill:#aa0e25;}.cls-5{fill:#fff;}.cls-6{opacity:0.1;}.cls-7{fill:#2b454e;}.cls-8{opacity:0.2;}</style></defs><title>produk-baru</title><path class="cls-1" d="M256.73,301C180,301,117.64,238.61,117.64,161.92S180,22.83,256.73,22.83s139.08,62.4,139.08,139.09S333.42,301,256.73,301Zm0-271.35A132.41,132.41,0,0,0,124.46,161.92c0,72.93,59.33,132.27,132.27,132.27S389,234.85,389,161.92,329.66,29.65,256.73,29.65Z"/><circle class="cls-1" cx="256.73" cy="161.92" r="120.11" transform="translate(-39.3 228.96) rotate(-45)"/><path class="cls-2" d="M244.45,122.49c-5.79,16.76-29.62,99.34-45.54,104-25.93,7.54-45.7,5.11-66.35,5.62-11.67.29-29.78-55.8-19.22-56.09,16.83-.48,55.06,2.47,61.16,2.18s28.85-47.3,50.3-67.73C244.13,92,248.53,110.69,244.45,122.49Z"/><path class="cls-2" d="M139.25,230.58c-.94.36-14.42,5.49-22.58,7-6.09,1.11-23.7,3.82-25.58-2.76-1.29-4.49,8.88-7.3,16-9.45,3.77-1.14,8.6-4.46,7.78-6.89-1.44-4.25-11.16-1.13-17.63,1.79-12.53,5.65-29.54,16.39-36.14,9.66-2.49-2.55,1.1-6.35,6.15-9.92-8,3.94-16.43,7-19.31,4.26-1.65-1.55-1.54-3.43-.32-5.47-2.4.52-4.44.16-5.71-1.5-2.19-2.81-.61-6.46,2.47-10.06a2.91,2.91,0,0,1-2.07-1.69C38,197.1,66.21,177.1,75.39,175.9c27-3.55,54.67.47,54.67.47C139.56,185.72,139.28,230.56,139.25,230.58Z"/><path class="cls-3" d="M103,202.32a45,45,0,0,0-18.28,5c-7.14,3.72-12.1,8.43-18.24,13.05-.17.12,0,.38.18.26,2.93-2.2,15-10.35,18-12.17a42.79,42.79,0,0,1,18.33-6C103.07,202.42,103.05,202.32,103,202.32Z"/><path class="cls-3" d="M99.22,190.63c-7.12,1.18-14.42,2.36-21.19,5-7.41,2.86-13.51,8.14-19.51,13.21q-5.4,4.58-10.59,9.37c-.15.14,0,.39.18.26q9.14-7.87,18.75-15.19a56.58,56.58,0,0,1,19.87-9.84c4.12-1.1,8.32-1.89,12.51-2.67C99.31,190.74,99.3,190.61,99.22,190.63Z"/><path class="cls-3" d="M92.83,180.08c-6.88.69-12.87,1.27-19.21,4.26-8.38,4-16.83,11.23-19.79,13.81-3.28,2.85-6.46,5.8-9.59,8.8-.13.12.08.35.21.23A226.38,226.38,0,0,1,67.08,189a45,45,0,0,1,12.25-6.28,80.33,80.33,0,0,1,13.5-2.54S92.86,180.08,92.83,180.08Z"/><path class="cls-4" d="M176.65,167.38,218.42,218s24.17-66.69,29.07-96.22c5.11-30.77-5.09-39.95-31.15-7.9C190.68,145.42,176.65,167.38,176.65,167.38Z"/><path class="cls-5" d="M216.14,119.1a3.2,3.2,0,0,1-1.41-.49,2.75,2.75,0,0,1-1.09-1.42c-.33.39-.65.79-.94,1.18a3.24,3.24,0,0,0,1.53,1.22,3.36,3.36,0,0,0,1.91.21c.6-.14,1.16-.21,1.72-.36A13.42,13.42,0,0,0,216.14,119.1Zm-9.83,79.33a3.45,3.45,0,0,1-1.41-.46,2.68,2.68,0,0,1-1.23-2.32,3.57,3.57,0,0,0-2.28-3.24,3.17,3.17,0,0,0-1.91-.13c-.6.13-1.16.2-1.75.34a13.25,13.25,0,0,0,1.75.36,3.48,3.48,0,0,1,1.45.42,2.7,2.7,0,0,1,1.29,2.25A3.62,3.62,0,0,0,204.4,199a3.42,3.42,0,0,0,1.91.17c.6-.11,1.16-.17,1.76-.34C207.47,198.63,206.91,198.56,206.31,198.43Zm39.23-85.72a3.34,3.34,0,0,0-.22,1.93c.14.56.22,1.12.36,1.72.17-.6.24-1.16.36-1.72a2.92,2.92,0,0,1,.47-1.43,2.72,2.72,0,0,1,2.13-1.25c.05-.49.07-1,.09-1.43A3.57,3.57,0,0,0,245.54,112.71ZM210.13,155a15.39,15.39,0,0,0-.36-1.72c-.14.56-.2,1.12-.36,1.72a3.68,3.68,0,0,1-.41,1.45,2.64,2.64,0,0,1-2.25,1.29,3.61,3.61,0,0,0-3.3,2.18,3.53,3.53,0,0,0-.19,1.91,15.53,15.53,0,0,0,.36,1.75,15.43,15.43,0,0,0,.34-1.75,3.57,3.57,0,0,1,.49-1.42,2.64,2.64,0,0,1,2.34-1.22,3.61,3.61,0,0,0,3.23-2.28A3.7,3.7,0,0,0,210.13,155Zm17.25-19.81a3.17,3.17,0,0,1-1.34.66,2.58,2.58,0,0,1-2.49-.77,3.57,3.57,0,0,0-3.9-.66,3.4,3.4,0,0,0-1.45,1.26c-.32.49-.7.95-1,1.48.53-.32,1-.66,1.49-1a2.86,2.86,0,0,1,1.32-.69,2.62,2.62,0,0,1,2.54.63,3.46,3.46,0,0,0,5.35-.43c.32-.49.67-.95,1-1.48C228.34,134.53,227.88,134.89,227.38,135.2Zm3.17,40.61a3.58,3.58,0,0,0-3.9-.67,3.45,3.45,0,0,0-1.45,1.26c-.3.5-.7,1-1,1.48.53-.32,1-.68,1.49-1a2.78,2.78,0,0,1,1.33-.7,2.61,2.61,0,0,1,2.53.63,3.48,3.48,0,0,0,2.54,1.07l.41-1.28A2.51,2.51,0,0,1,230.55,175.81Zm-47.93-4.74a2.85,2.85,0,0,1-1.33.67,2.7,2.7,0,0,1-1,0l1,1.18.39-.14a3.49,3.49,0,0,0,1.52-1.23c.32-.49.66-.95.95-1.48C183.57,170.41,183.11,170.75,182.62,171.07Z"/><path class="cls-3" d="M219.68,202.93c-.92-1.38-2-2.65-3.07-3.93l-3.19-4c-2.15-2.7-4.35-5.36-6.56-8-4.42-5.29-8.82-10.59-13.33-15.81-1.23-1.43-2.48-2.86-3.76-4.26s-2.79-2.85-4.12-4.33c-.09-.09-.21,0-.14.13,1.06,1.35,2,2.78,3.05,4.13s2.17,2.75,3.28,4.11q3.28,4,6.63,7.94c4.38,5.18,8.76,10.38,13.26,15.46,1.25,1.42,2.52,2.82,3.78,4.24s2.57,3.07,4,4.43C219.6,203.11,219.74,203,219.68,202.93Z"/><path class="cls-6" d="M247.5,121.73C242.59,151.26,218.43,218,218.43,218l-26.28-31.83,49.6-92.3C248.44,94.24,250.33,104.68,247.5,121.73Z"/><path class="cls-4" d="M329.48,257.48a120.08,120.08,0,0,1-140.83,3.39C197.36,215.8,218.8,119,230.37,104c3.17-4.14,13.68-5.3,22.6-4.19a40.28,40.28,0,0,1,6.89,1.41l.23,0a16.73,16.73,0,0,1,5.05,2.48C283.72,118.54,315.26,211.18,329.48,257.48Z"/><path class="cls-5" d="M319.66,257.49a3.44,3.44,0,0,1-1.33.66,2.75,2.75,0,0,1-2.54-.77,3.52,3.52,0,0,0-3.87-.66,3.2,3.2,0,0,0-1.44,1.26,16.58,16.58,0,0,0-1,1.48c.53-.32,1-.66,1.48-1a3.33,3.33,0,0,1,1.35-.73,2.58,2.58,0,0,1,2.48.67,3.61,3.61,0,0,0,3.87.8,3.42,3.42,0,0,0,1.48-1.23c.32-.49.7-1,1-1.48C320.61,256.82,320.15,257.18,319.66,257.49Zm-73.51,18.19a3.14,3.14,0,0,1-1.38.66,2.72,2.72,0,0,1-2.48-.76,3.47,3.47,0,0,0-3.92-.69,3.65,3.65,0,0,0-1.43,1.28c-.32.46-.67.9-1,1.43a13,13,0,0,0,1.48-1,4.56,4.56,0,0,1,1.33-.71,2.71,2.71,0,0,1,2.54.68,3.46,3.46,0,0,0,5.35-.43c.31-.49.66-.95.94-1.48C247.09,275,246.65,275.32,246.15,275.68Zm26.1-42.13a3.28,3.28,0,0,1-1.38.67,2.74,2.74,0,0,1-2.49-.77,3.47,3.47,0,0,0-3.91-.68,3.51,3.51,0,0,0-1.43,1.28c-.33.46-.67.9-1,1.43a14.49,14.49,0,0,0,1.48-1,4.49,4.49,0,0,1,1.33-.72,2.74,2.74,0,0,1,2.54.68,3.57,3.57,0,0,0,3.83.8,3.5,3.5,0,0,0,1.51-1.22c.31-.5.67-1,.94-1.49C273.19,232.85,272.74,233.19,272.25,233.55Zm-69.45,4.57a2.63,2.63,0,0,1-1.34.66,2.68,2.68,0,0,1-2.52-.73,3.49,3.49,0,0,0-3.87-.72,3.91,3.91,0,0,0-1.45,1.28c-.25.34-.49.68-.71,1a2.82,2.82,0,0,1-.07.31,14.54,14.54,0,0,0,1.27-.83,3.13,3.13,0,0,1,1.33-.72,2.66,2.66,0,0,1,2.51.68,3.61,3.61,0,0,0,3.86.8,3.49,3.49,0,0,0,1.49-1.22c.3-.5.69-1,1-1.49C203.76,237.45,203.3,237.79,202.8,238.12Zm31.58-62.21a2.76,2.76,0,0,1-1.34.66,2.6,2.6,0,0,1-2.49-.76,3.58,3.58,0,0,0-3.9-.67,3.45,3.45,0,0,0-1.45,1.26c-.3.5-.7,1-1,1.48.53-.32,1-.68,1.49-1a2.78,2.78,0,0,1,1.33-.7,2.61,2.61,0,0,1,2.53.63,3.46,3.46,0,0,0,5.35-.43c.31-.49.67-1,1-1.48C235.34,175.24,234.88,175.58,234.38,175.91Zm-7-40.71a3.17,3.17,0,0,1-1.34.66,2.58,2.58,0,0,1-2.49-.77,3.57,3.57,0,0,0-3.9-.66,3.4,3.4,0,0,0-1.45,1.26c-.12.19-.25.38-.39.56s-.12.43-.19.65c.38-.24.72-.48,1.08-.72a2.86,2.86,0,0,1,1.32-.69,2.62,2.62,0,0,1,2.54.63,3.46,3.46,0,0,0,5.35-.43c.32-.49.67-.95,1-1.48C228.34,134.53,227.88,134.89,227.38,135.2ZM281,133.66a3.16,3.16,0,0,1-1.33.67,2.6,2.6,0,0,1-2.51-.77,3.55,3.55,0,0,0-3.9-.66,3.37,3.37,0,0,0-1.44,1.26c-.31.49-.7,1-1,1.48.53-.32,1-.66,1.48-1a3,3,0,0,1,1.34-.7,2.63,2.63,0,0,1,2.53.63,3.44,3.44,0,0,0,3.83.8,3.39,3.39,0,0,0,1.51-1.22c.33-.5.67-1,1-1.48C282,133,281.5,133.36,281,133.66ZM211,269c-.14-.6-.2-1.16-.36-1.72a13.42,13.42,0,0,0-.34,1.72,3.22,3.22,0,0,1-.46,1.45,2.53,2.53,0,0,1-2,1.27c.59.28,1.19.55,1.78.79a3.46,3.46,0,0,0,1.21-1.6A3.72,3.72,0,0,0,211,269Zm73.88-102.61c-.14-.57-.21-1.13-.34-1.73a12.7,12.7,0,0,0-.36,1.73,3.45,3.45,0,0,1-.46,1.48,2.63,2.63,0,0,1-2.25,1.31,3.47,3.47,0,0,0-3.27,2.18,2.84,2.84,0,0,0-.17,1.89c.1.6.17,1.16.31,1.72a11.91,11.91,0,0,0,.35-1.72,3.34,3.34,0,0,1,.5-1.41,2.63,2.63,0,0,1,2.31-1.23,3.57,3.57,0,0,0,3.24-2.28A4.2,4.2,0,0,0,284.91,166.34Zm-51.45,42.77a13.42,13.42,0,0,0-.34-1.72c-.15.56-.22,1.12-.35,1.72a3.38,3.38,0,0,1-.43,1.45,2.61,2.61,0,0,1-2.25,1.29,3.64,3.64,0,0,0-3.3,2.18,3.45,3.45,0,0,0-.17,1.89,16.21,16.21,0,0,0,.34,1.77,14.19,14.19,0,0,0,.35-1.77,2.9,2.9,0,0,1,.5-1.39,2.55,2.55,0,0,1,2.32-1.23,3.62,3.62,0,0,0,3.23-2.3A3.51,3.51,0,0,0,233.46,209.11Zm18.72-101.32c-.1-.61-.18-1.18-.32-1.74a13.39,13.39,0,0,0-.34,1.74,3.71,3.71,0,0,1-.46,1.43,2.59,2.59,0,0,1-2.25,1.31,3.56,3.56,0,0,0-3.27,2.18,3.34,3.34,0,0,0-.22,1.93c.14.56.22,1.12.36,1.72.17-.6.24-1.16.36-1.72a2.92,2.92,0,0,1,.47-1.43,2.71,2.71,0,0,1,2.34-1.25,3.4,3.4,0,0,0,3.33-4.17Zm53.63,87.84a4,4,0,0,1-1.35.75,2.73,2.73,0,0,1-2.54-.68,3.56,3.56,0,0,0-3.83-.8,3.18,3.18,0,0,0-1.5,1.23c-.32.49-.68,1-1,1.48.53-.32,1-.66,1.49-1a3.08,3.08,0,0,1,1.33-.66,2.83,2.83,0,0,1,2.53.76,3.58,3.58,0,0,0,3.9.69,3.78,3.78,0,0,0,1.45-1.28c.31-.5.67-1,.94-1.47C306.75,195,306.3,195.33,305.81,195.63Zm7.1,36.27a3.32,3.32,0,0,1-1.41-.49,2.67,2.67,0,0,1-1.23-2.34,3.58,3.58,0,0,0-2.28-3.23,3.82,3.82,0,0,0-1.94-.11c-.57.11-1.13.19-1.72.33a15.82,15.82,0,0,0,1.72.34,3.8,3.8,0,0,1,1.48.46,2.65,2.65,0,0,1,1.29,2.25,3.54,3.54,0,0,0,2.15,3.27,3.41,3.41,0,0,0,1.94.22c.6-.14,1.16-.22,1.72-.36A13.42,13.42,0,0,0,312.91,231.9Zm-106.6-33.47a3.45,3.45,0,0,1-1.41-.46,2.68,2.68,0,0,1-1.23-2.32,3.62,3.62,0,0,0-.65-2c-.23,1-.46,1.92-.68,2.89A3.61,3.61,0,0,0,204.4,199a3.42,3.42,0,0,0,1.91.17c.6-.11,1.16-.17,1.76-.34C207.47,198.63,206.91,198.56,206.31,198.43Zm58.77,3.51a3.61,3.61,0,0,1-1.41-.46,2.7,2.7,0,0,1-1.23-2.32,3.57,3.57,0,0,0-2.28-3.24,3.09,3.09,0,0,0-1.91-.13c-.6.13-1.16.2-1.76.34a13.74,13.74,0,0,0,1.76.36,3.3,3.3,0,0,1,1.45.42,2.67,2.67,0,0,1,1.29,2.25,3.6,3.6,0,0,0,2.18,3.3,3.35,3.35,0,0,0,1.91.18,15.09,15.09,0,0,0,1.75-.36C266.24,202.14,265.68,202.07,265.08,201.94Zm-28.52,47a4,4,0,0,1-1.44-.5,2.72,2.72,0,0,1-1.23-2.33,3.5,3.5,0,0,0-2.28-3.22,3.43,3.43,0,0,0-1.91-.15c-.6.15-1.16.22-1.72.35.56.17,1.12.24,1.72.36a3.1,3.1,0,0,1,1.45.45,2.7,2.7,0,0,1,1.33,2.26,3.4,3.4,0,0,0,4.08,3.44,12.27,12.27,0,0,0,1.72-.36C237.69,249.09,237.13,249,236.56,248.92Zm42.52,18a3.33,3.33,0,0,1-1.45-.5,2.66,2.66,0,0,1-1.22-2.33,3.53,3.53,0,0,0-2.3-3.24,3.73,3.73,0,0,0-1.89-.1c-.57.1-1.16.19-1.72.33a16.86,16.86,0,0,0,1.72.34,3.76,3.76,0,0,1,1.44.46,2.67,2.67,0,0,1,1.33,2.24,3.51,3.51,0,0,0,2.15,3.28,3.45,3.45,0,0,0,1.94.22c.56-.14,1.13-.22,1.72-.36A16.31,16.31,0,0,0,279.08,266.89Zm-25.5-111.08a3.34,3.34,0,0,1-1.41-.5,2.65,2.65,0,0,1-1.23-2.33,3.62,3.62,0,0,0-2.28-3.24,3.82,3.82,0,0,0-1.91-.1A15.09,15.09,0,0,0,245,150c.59.14,1.15.2,1.75.32a3.64,3.64,0,0,1,1.45.45,2.71,2.71,0,0,1,1.29,2.26,3.57,3.57,0,0,0,2.18,3.27,3.45,3.45,0,0,0,1.91.21c.6-.14,1.16-.21,1.72-.36A13.42,13.42,0,0,0,253.58,155.81Z"/><path class="cls-2" d="M286.77,122.69c32.84,53.28,62.74,112.46,51.8,127.57-8.83,12.19-88.84,44.87-115.52,46.92-8.48.65-29.49-61.73-15.45-66.77,4-1.44,69-13.87,69.42-15.38,1.26-4.83-7.48-37.36-15.54-74.42C251.11,92.91,272.88,100.14,286.77,122.69Z"/><path class="cls-2" d="M175.87,241.43c4-1.43,6.32-4.58-.8-6.94s-37.29-5.68-35.24-16.11,43.92-3.2,56.1-.29a48.75,48.75,0,0,1,29.59,21C206.07,240.21,191.19,241.14,175.87,241.43Z"/><path class="cls-3" d="M153.31,212.91a99.83,99.83,0,0,1,12.11-.24c4,.12,8.07.5,12.08,1A95.21,95.21,0,0,1,201,219.58c-2-.37-3.91-.93-5.9-1.26s-3.93-.81-5.91-1.15c-3.95-.66-7.9-1.33-11.88-1.81s-8-1-11.95-1.38q-3-.31-6-.55C157.33,213.22,155.32,213.09,153.31,212.91Z"/><rect class="cls-7" x="157.23" y="166.64" width="6.21" height="138.55" transform="matrix(0, -1, 1, 0, -75.97, 395.66)"/><polygon class="cls-3" points="91.06 232.64 91.05 238.84 185.23 239.07 180.49 232.86 91.06 232.64"/><polygon class="cls-7" points="174.5 239.05 39.48 238.72 28.46 146.99 163.49 147.32 174.5 239.05"/><path class="cls-5" d="M109.7,193a8.05,8.05,0,0,1-8.1,8.2A8.4,8.4,0,0,1,93.26,193a8.05,8.05,0,0,1,8.1-8.2A8.39,8.39,0,0,1,109.7,193Z"/><path class="cls-2" d="M222.89,297.17c-23.81,1.36-58-2.16-80.26-17.54a13.38,13.38,0,0,1-5.36-6.93c-10.08-6.72-9.94-13.5-9.94-13.5-7.49-9.13-6.39-16-6.39-16s-11.76-8-8.09-15.92c4.08-8.89,19.79,4.1,32.81,6,29.81,4.26,74,6.32,82.69,6.69Z"/><path class="cls-3" d="M173.73,259.56c-8.75-1.42-17.38-2.6-25.89-5.21-9.34-2.86-17.84-7.17-26.61-11.35a.23.23,0,0,0-.24.4c14.68,10.08,34.92,16.11,52.68,16.56C174.1,260,174.17,259.64,173.73,259.56Z"/><path class="cls-3" d="M173.77,277.93c-8.43-1.86-23.24-5.23-46.33-19-.08,0-.18.07-.1.13,13.8,11,29,17,46.34,19.3C174.22,278.41,174.33,278.06,173.77,277.93Z"/><path class="cls-3" d="M173.61,287.8c-14.22-3.71-22.72-7.85-36.29-15.18-.07,0-.17.08-.09.13,14.55,9.95,21,11.92,36.32,15.56C174.08,288.44,174.17,288,173.61,287.8Z"/><path class="cls-4" d="M271.54,200l65.57,1.72s-34.42-62-53.46-85.11c-19.85-24.07-33.48-22.4-26.42,18.29C264.19,175,271.54,200,271.54,200Z"/><path class="cls-5" d="M320.42,172.67c-.29,0-.58-.08-.87-.15a3.6,3.6,0,0,1-1.44-.48,2.73,2.73,0,0,1-1.23-2.33,3.55,3.55,0,0,0-2.28-3.24,3.61,3.61,0,0,0-1.91-.13c-.6.13-1.16.2-1.72.35a13.42,13.42,0,0,0,1.72.34,3.18,3.18,0,0,1,1.45.46,2.68,2.68,0,0,1,1.34,2.25,3.48,3.48,0,0,0,2.15,3.27,3.3,3.3,0,0,0,1.92.19c.35-.07.7-.12,1.06-.2a5.89,5.89,0,0,0,.67-.16C321,172.77,320.7,172.72,320.42,172.67Zm-14.61,23a4,4,0,0,1-1.35.75,2.73,2.73,0,0,1-2.54-.68,3.56,3.56,0,0,0-3.83-.8,3.18,3.18,0,0,0-1.5,1.23c-.32.49-.68,1-1,1.48.53-.32,1-.66,1.49-1a3.08,3.08,0,0,1,1.33-.66,2.83,2.83,0,0,1,2.53.76,3.58,3.58,0,0,0,3.9.69,3.78,3.78,0,0,0,1.45-1.28c.31-.5.67-1,.94-1.47C306.75,195,306.3,195.33,305.81,195.63Zm-4.06-53.36a3,3,0,0,0-.69,1,3.61,3.61,0,0,0-.17,1.91,15,15,0,0,0,.34,1.75,13.22,13.22,0,0,0,.35-1.75,3,3,0,0,1,.5-1.41,2.5,2.5,0,0,1,.39-.46C302.23,143,302,142.62,301.75,142.27Zm-16.84,24.07c-.14-.57-.21-1.13-.34-1.73a12.7,12.7,0,0,0-.36,1.73,3.45,3.45,0,0,1-.46,1.48,2.63,2.63,0,0,1-2.25,1.31,3.47,3.47,0,0,0-3.27,2.18,2.84,2.84,0,0,0-.17,1.89c.1.6.17,1.16.31,1.72a11.91,11.91,0,0,0,.35-1.72,3.34,3.34,0,0,1,.5-1.41,2.63,2.63,0,0,1,2.31-1.23,3.57,3.57,0,0,0,3.24-2.28A4.2,4.2,0,0,0,284.91,166.34ZM281,133.66a3.16,3.16,0,0,1-1.33.67,2.6,2.6,0,0,1-2.51-.77,3.55,3.55,0,0,0-3.9-.66,3.37,3.37,0,0,0-1.44,1.26c-.31.49-.7,1-1,1.48.53-.32,1-.66,1.48-1a3,3,0,0,1,1.34-.7,2.63,2.63,0,0,1,2.53.63,3.44,3.44,0,0,0,3.83.8,3.39,3.39,0,0,0,1.51-1.22c.33-.5.67-1,1-1.48C282,133,281.5,133.36,281,133.66Z"/><path class="cls-3" d="M326.6,190.86c-1.64-.21-3.33-.2-5-.27l-5.1-.21c-3.45-.15-6.9-.24-10.35-.31-6.89-.14-13.78-.31-20.67-.34-1.9,0-3.79,0-5.69,0s-4,.23-6,.27c-.12,0-.1.18,0,.19,1.71.08,3.41.31,5.12.41s3.5.17,5.25.22c3.44.1,6.89.18,10.34.22,6.79.09,13.58.21,20.36.16l5.69-.07c2,0,4,.08,6-.12A.1.1,0,0,0,326.6,190.86Z"/><path class="cls-3" d="M315.37,166.47c-2.34-4-4.56-8-6.84-12-2.6-4.53-5-9.14-7.57-13.71-.06-.12.14-.23.21-.12,3,4.81,13.09,20.83,14.73,23.55,4.78,8,9.56,15.92,14.27,23.92,2.64,4.48,5.58,9.69,8.19,14.19.19.32-5.13-.06-7.93-.34-.15,0-.33-.48-.15-.47,2.61.08,6.14-.23,6.49-.2q-7.23-11.28-14.16-22.76Q319,172.53,315.37,166.47Z"/><path class="cls-3" d="M263.48,169.34a19.52,19.52,0,0,1-2.73-7.07,0,0,0,0,1,.08,0,39.45,39.45,0,0,0,2.5,6.31c-.18-.91-.37-1.82-.55-2.73-.65-3.29-1.31-6.58-1.8-9.9,0-.05.07-.07.09,0,1.52,5.65,2.78,11.38,4.17,17.07s2.79,11.55,4.17,17.32c.75,3.15,1.51,6.3,2.19,9.47,1.06.11,1.9.1,2.84.21.26,0,.27.46,0,.47a17.83,17.83,0,0,1-3.57-.14C267.83,190.15,265.57,179.74,263.48,169.34Z"/><path class="cls-2" d="M235.29,127.1c8.22,1.3,21.15-12.09,25.88-22.5.32-.72-1.28-7.87-2.8-16.65-.91-5.33-1.79-11.29-2.21-16.78l-33.83,11s4.25,11.26,4.92,20.85a13,13,0,0,1-.07,2.27,2.18,2.18,0,0,0,0,.38C226.78,110,227.34,125.83,235.29,127.1Z"/><path class="cls-3" d="M253.78,72c-.45,7.35-3.43,31.68-23.06,33.59a18.86,18.86,0,0,1-3.57.08,2.43,2.43,0,0,0,0-.36,12.28,12.28,0,0,0,.08-2.29c-.66-9.57-4.91-20.84-4.91-20.84Z"/><path class="cls-2" d="M250.83,26.36c6.48,11.06,8.38,47,1.73,56.69-9.64,14.06-29.51,19.92-42.49,7.39-12.58-12.14-14.23-59-6.42-68.25C215.15,8.59,241.26,10,250.83,26.36Z"/><path class="cls-3" d="M223.12,55.84c0-.09.2.11.2.21.07,2.42.55,5.19,2.78,5.86.07,0,.07.15,0,.14C223.4,61.83,222.8,58.15,223.12,55.84Z"/><path class="cls-3" d="M225.14,53.19c3.87-.52,4.63,7.27,1,7.75S221.89,53.63,225.14,53.19Z"/><path class="cls-3" d="M208.76,56.75c0-.1-.18.13-.17.23.31,2.4.26,5.21-1.84,6.22-.06,0-.05.15,0,.13C209.41,62.7,209.44,59,208.76,56.75Z"/><path class="cls-3" d="M206.36,54.43c-3.91.09-3.46,7.9.16,7.82S209.63,54.37,206.36,54.43Z"/><path class="cls-3" d="M227.87,49.33a27.85,27.85,0,0,1-3.12-.77,5.11,5.11,0,0,1-3-1.39,1.65,1.65,0,0,1,.07-2c1.06-1.14,2.62-1.13,4.07-.82a6.06,6.06,0,0,1,3.71,2.26A1.76,1.76,0,0,1,227.87,49.33Z"/><path class="cls-3" d="M203,50.81a31.89,31.89,0,0,0,3-1.11A5.15,5.15,0,0,0,208.85,48a1.66,1.66,0,0,0-.3-2c-1.18-1-2.73-.84-4.14-.37A6.07,6.07,0,0,0,201,48.27,1.77,1.77,0,0,0,203,50.81Z"/><path class="cls-3" d="M227.12,77.68c-.52.62-1,1.45-1.89,1.61a6.35,6.35,0,0,1-2.66-.35.08.08,0,0,0-.09.13,3.24,3.24,0,0,0,3.19,1,2.56,2.56,0,0,0,1.69-2.31C227.39,77.62,227.2,77.59,227.12,77.68Z"/><path class="cls-3" d="M223.88,70.7a8.23,8.23,0,0,1-5.13,4.19,10,10,0,0,1-2.94.42,2.17,2.17,0,0,1-.57,0,5.17,5.17,0,0,1-.54,0,.59.59,0,0,1-.53-.49v0a.7.7,0,0,1,0-.25h0v-.22c-.23-1.85-.33-4.69-.33-4.69-.64.4-3.95,2.3-4,1.32-.3-8.08-.64-17.06.77-25.17a.23.23,0,0,1,.45,0c.59,7.75-.18,15.56.3,23.36a14.14,14.14,0,0,1,3.76-1.55c.27.05.08,5.49.25,6.32l0,.08c3.16.1,5.42-1.07,8.24-3.46C223.8,70.35,224,70.5,223.88,70.7Z"/><path class="cls-3" d="M209.12,31.05a13.64,13.64,0,0,0,12.75,3.72c4.5-1.06,8.78-4.52,10.09-9a.11.11,0,1,1,.21.06c-1.4,4.83-4.94,9-10,10.06a14.07,14.07,0,0,1-13.26-4.56C208.74,31.12,209,30.89,209.12,31.05Z"/><path class="cls-3" d="M220,.77c5.51-2,11.95.13,15.71,4.47A20.14,20.14,0,0,1,240,14.36a.11.11,0,1,1-.21.05c-1.44-5.24-5.26-10.33-10.44-12.31a12.32,12.32,0,0,0-17.1,10.82.25.25,0,0,1-.49,0A12.75,12.75,0,0,1,220,.77Z"/><path class="cls-3" d="M178.69,17.64a16.55,16.55,0,0,1,6.38-9.34c4.37-3.15,9.57-3.11,14.74-3a.11.11,0,0,1,0,.21c-4.4-.11-8.87,0-12.74,2.37a16.24,16.24,0,0,0-6.91,8.4,15.78,15.78,0,0,0,7.93,19.09,16,16,0,0,0,12.71.39c.16-.07.29.16.13.23a16.13,16.13,0,0,1-22.23-18.4Z"/><path class="cls-3" d="M252.47,28.09s-1.62-10.9-4.75-14-9.49-3.31-9.49-3.31S233.73,1.84,224.84,2c-8,.16-12.73,7.64-12.73,7.64s-12-9.92-24-2.6C176.76,14,179.89,32,192,36.77c8.46,3.35,19-4.72,19-4.72,1.08.07,12.49,5.81,20-4.55,0,0,7.94,5.14,11.87.69C242.81,28.19,248.77,30.39,252.47,28.09Z"/><path class="cls-8" d="M256.68,56.82c-2.23-1.32-7-10.17-9.2-13.85-2-3.33-3.41-17.46-4-24.51a25.19,25.19,0,0,1,7.35,7.9C254.22,32.14,256.36,44.74,256.68,56.82Z"/><path class="cls-2" d="M250.15,56.18s5.4-12.88,11.08-11.2,3.32,19.19-2.16,22.7a6.2,6.2,0,0,1-8.83-1.5Z"/><path class="cls-3" d="M260.43,50c.09,0,.14.1.06.15-3.81,2.6-5.17,7-5.84,11.31.91-1.82,2.42-3,4.81-2,.13.05.06.24-.06.24a3.81,3.81,0,0,0-3.82,2.2,17.87,17.87,0,0,0-1.25,3.74c-.11.42-.83.36-.78-.1,0,0,0-.07,0-.1C252.3,60.11,254.82,51.76,260.43,50Z"/><path class="cls-7" d="M227.12,104.88l11.25,19,21.17-29.26,8.33,7.1s-18.36,44.18-18.79,42.38L238.16,128,228,141.87l-3.61-30.46Z"/><path class="cls-3" d="M225.37,126.91c-.43-5-1-10.12-1.19-15.18,0-.18.26-.3.33-.1,1.73,4.68,3.26,24,4,28.57l0-.06c.42-.59,9.5-12.3,9.63-12.16,2.22,2.49,10.22,14.21,10.81,15.29,2.89-7,14.2-32.63,17.86-39.4a.18.18,0,0,1,.33.13c-2.4,7.31-17.27,41.75-17.59,41.71-.18.19-10.1-14.24-11.45-17-1.46,2.47-10.44,15.49-10.59,14.75A160.67,160.67,0,0,1,225.37,126.91Z"/></svg>