<svg id="Layer_1" data-name="Layer 1" xmlns="http://www.w3.org/2000/svg" viewBox="0 0 424.27 301"><defs><style>.cls-1{fill:#ffc800;}.cls-2,.cls-9{fill:#fff;}.cls-2{opacity:0.5;}.cls-3{fill:#ffaba1;}.cls-4{fill:#1a2e35;}.cls-5{opacity:0.1;}.cls-6{fill:#375a64;}.cls-7{fill:#a8a8a8;}.cls-8{fill:#c8c8c8;}.cls-10{fill:#ff9cbf;}</style></defs><title>produk-baru</title><path class="cls-1" d="M144.67,295.39C64.9,295.39,0,230.49,0,150.72S64.9,6,144.67,6s144.68,64.9,144.68,144.68S224.45,295.39,144.67,295.39Zm0-282.26C68.81,13.13,7.09,74.85,7.09,150.72S68.81,288.3,144.67,288.3s137.59-61.72,137.59-137.58S220.54,13.13,144.67,13.13Z"/><circle class="cls-1" cx="144.68" cy="150.72" r="124.94"/><circle class="cls-2" cx="144.68" cy="150.72" r="124.94"/><path class="cls-3" d="M164.08,135.41c10.33,15.28,64.32,88.4,93.44,87.31,35.27-1.33,78.36-15.43,96.29-27.59,10.05-6.81-24.74-55.58-34.53-50.6-15.45,7.87-51.37,19.23-57.58,20.59s-51.24-32.27-78.3-47C159,104.82,156.8,124.65,164.08,135.41Z"/><path class="cls-3" d="M352.08,195.68c6.66-2.79,41.83-20,49-26.15s26.71-25.28,22.58-31.28-10.29-.86-10.29-.86,6.95-9.39,2.24-15-14,2.66-14,2.66,6.43-10.16,1.33-15.48-13.06,4.63-13.06,4.63,6.31-9,.27-11.63c-7.28-3.14-17.05,14.8-25.52,21-1.93,1.4-41,25.62-41,25.62Z"/><path class="cls-4" d="M390.59,113.31C383.38,126.48,378,131,365,138.18c-.26.14-.1.54.17.42,13.3-5.87,20.94-10.56,26.06-25C391.5,112.92,390.94,112.68,390.59,113.31Z"/><path class="cls-4" d="M402.18,123.94c-8.69,13-14.54,18-27.53,26.49-.18.12,0,.45.2.34,13.44-7.28,20.95-12.13,27.92-26.29C403.09,123.84,402.58,123.35,402.18,123.94Z"/><path class="cls-4" d="M412.74,137.8c-9.32,12-15.51,17.71-29.18,24.36a.28.28,0,0,0,.22.52c14.6-5.42,22.36-12.48,29.29-24.55C413.54,137.3,413.32,137.05,412.74,137.8Z"/><path class="cls-3" d="M309.38,153.76s6.72-17.59,11.37-24.66,31.7-27,36.35-21.45c6,7.22-7.34,21.83-14.81,28.13,0,0,13.89,16.7,6.58,29.26S309.38,153.76,309.38,153.76Z"/><path class="cls-4" d="M358.1,110.17c.72,10.54-9.62,18.18-16.41,24.83a.87.87,0,0,0,.17,1.42c5.36,7.39,10.76,19.37,7.59,28.47a.22.22,0,0,0,.4.18c4.73-9.3.38-21.5-6-29.22,7.06-6.72,17.1-14.83,14.35-25.69C358.18,110.1,358.09,110.11,358.1,110.17Z"/><path class="cls-1" d="M307.26,147.27l31.11,62.31S270.2,236,243.66,221.14s-67.56-65.77-76.1-77.4c-18.69-25.43-4-38.77,16.82-25.79s72.41,44.63,75.72,45.53S307.26,147.27,307.26,147.27Z"/><path class="cls-5" d="M237.8,217.44c-26.34-18.17-62.31-62.9-70.23-73.71-17-23.08-6.46-36.19,11.23-28.69Z"/><path class="cls-6" d="M321.58,211.26c-4-6.86-7.54-13.92-11.11-21s-7.16-14.15-10.56-21.32c-1.92-4.05-3.86-8.09-5.64-12.21,0-.11.12-.22.19-.11,4,6.84,7.57,13.9,11.18,20.93s7.16,14.16,10.64,21.29c2,4,3.86,8.09,5.64,12.21C322,211.25,321.7,211.46,321.58,211.26Z"/><path class="cls-1" d="M225.7,256.37a125,125,0,0,1-144-7.52c6.83-35.51,23.61-96.11,58.37-136,9.71-11.16,36.16-7.89,39.24-3.42C200,139.55,218.42,218.19,225.7,256.37Z"/><polygon class="cls-7" points="197.38 282.2 273.74 300.12 313.53 195.43 237.17 177.52 197.38 282.2"/><polygon class="cls-8" points="201.13 283.08 277.49 301 317.28 196.31 240.92 178.4 201.13 283.08"/><path class="cls-9" d="M270.34,237.32a8.48,8.48,0,0,1-9.82,5.53,6.87,6.87,0,0,1-5-9,8.48,8.48,0,0,1,9.82-5.53A6.86,6.86,0,0,1,270.34,237.32Z"/><path class="cls-3" d="M126.27,127.14c-22.09,30.74-69.59,101-55.57,117.18,23,26.67,79.29,50,96.92,55.31,7.6,2.27,34.83-53,27.66-57.54-8.61-5.46-63.72-27.11-64-29.77-.29-2.94,10-40.75,13.41-70.59C148.91,104.69,135.48,114.31,126.27,127.14Z"/><path class="cls-3" d="M167.57,238.22s23.18-6.8,38.55-10.53c8.57-2.09,23.59-4.34,30.58-3,10.47,2,52.95,17.16,49.51,27.54-3.12,9.39-38-8.25-38-8.25s36.73,14.69,30.9,25.32-42.57-14.55-42.57-14.55S274,270.7,266.23,280.7c-5.86,7.56-40.41-13.36-40.41-13.36s32.06,13.93,26.37,22c-6.29,8.88-39.39-8.43-39.39-8.43-17.9,18-33.43,20.38-45.18,18.76C164.88,299.25,167.57,238.22,167.57,238.22Z"/><path class="cls-4" d="M237.57,238.85c27.89,8.75,38.88,21.59,38.52,21.31-8.53-6.66-23.54-13.89-27.77-15.84S241.71,241,237.49,239C237.38,239,237.47,238.81,237.57,238.85Z"/><path class="cls-4" d="M228.53,253.22c13.47,3.29,27.51,11.36,31.91,14.9.36.29.15.37-.26.16-5.3-2.63-26.31-12.57-31.72-14.93C228.38,253.31,228.44,253.2,228.53,253.22Z"/><path class="cls-4" d="M219.9,265.07c11.83,3.84,16.73,6.76,24.37,12.26.37.27,0,.39-.36.17-8-4.23-14.29-7.61-24.11-12.13C219.64,265.29,219.72,265,219.9,265.07Z"/><path class="cls-1" d="M178.33,233.54l-31,66.16s-74-39.86-79.54-58.59,44.71-101.1,60-117.91,20.24-9.91,19.81,9.26-15.5,78.93-15.13,80S178.33,233.54,178.33,233.54Z"/><path class="cls-4" d="M137.92,184.28q1.52-6.72,2.93-13.46c.49-2.34,1-4.67,1.5-7l.72-3.22c.12-.53.3-1.06.38-1.6a8.88,8.88,0,0,1,.54-2.13c0-.12.24-.09.22,0-.12,1.23.13.74-.11,1.68a18.76,18.76,0,0,0-.36,2.12c-.16,1.08-.34,2.17-.51,3.25-.36,2.22-.76,4.43-1.18,6.65-.05.29-.12.58-.17.87,0-.08.05-.16.07-.24.82-2.4,1.67-4.79,2.52-7.18a.09.09,0,0,1,.17.06c-.57,2.47-1.22,4.9-2,7.32-.46,1.39-1,2.76-1.56,4.12-.58,2.95-1.15,5.9-1.77,8.84-1.93,9.12-3.91,18.28-6.56,27.22,3.87,1.77,7.82,3.36,11.69,5.14s7.73,3.63,11.59,5.46,7.72,3.65,11.54,5.55c1.83.91,3.64,1.85,5.45,2.77,2,1,3.84,2.24,5.84,3.2.2.1,0,.39-.19.3-2.07-1-4.28-1.65-6.38-2.56-1.84-.8-3.69-1.58-5.53-2.4-3.9-1.75-7.77-3.57-11.64-5.38s-7.75-3.61-11.6-5.46-7.58-3.89-11.41-5.75a.41.41,0,0,1-.24-.28.49.49,0,0,1-.21-.51C133.55,202.52,135.87,193.42,137.92,184.28Z"/><path class="cls-4" d="M147.48,259.64c2.31-4.79,11.69-23.9,14.38-28.47,0-.07.17,0,.14.06-1.71,4.86-10.41,24-12.71,28.79-4.6,9.58-9,19.31-14.65,28.35-.1.16-.39.06-.32-.13C138.06,278.42,142.93,269.09,147.48,259.64Z"/><path class="cls-4" d="M94.07,267c1.7,1,3.3,2.17,4.9,3.29l5,3.46c3.27,2.28,6.56,4.64,10.05,6.59.19.11,0,.41-.19.3-3.53-2-7.13-3.9-10.55-6.12a52.05,52.05,0,0,1-9.41-7.29A.15.15,0,0,1,94.07,267Z"/><path class="cls-3" d="M176,133.41c-8.14,2.93-24-8.24-30.82-18-.47-.67-.23-8.29-.37-17.55-.11-5.63-.37-11.89-1-17.58l36.71,4.62s-2.16,12.34-1,22.26a13.26,13.26,0,0,0,.51,2.31c0,.11.07.23.1.38C181.32,114.25,183.84,130.57,176,133.41Z"/><path class="cls-4" d="M179.49,107.19a13,13,0,0,0,.42,2c-18-1-29-9.45-35.3-16.67-.15-4.06-.41-8.28-.85-12.21l36.69,4.62S178.3,97.28,179.49,107.19Z"/><path class="cls-3" d="M131.38,41.08c-1.6,13.23,11.47,48.31,21.84,54.81,15,9.42,36.41,6.77,43.6-10.55,7-16.8-10.87-62.21-22.15-67.78C158.06,9.35,133.75,21.54,131.38,41.08Z"/><path class="cls-4" d="M168.55,55.78c-.05-.08-.15.18-.11.28.95,2.34,1.63,5.17-.22,6.75-.06,0,0,.16.07.12C170.77,61.6,169.82,57.85,168.55,55.78Z"/><path class="cls-4" d="M165.53,54.08c-3.92,1.11-1.41,8.86,2.21,7.83S168.81,53.16,165.53,54.08Z"/><path class="cls-4" d="M183,50.64c0-.1.22,0,.25.15.7,2.43,1.91,5.08,4.34,5.18.07,0,.11.12,0,.14C184.82,56.59,183.25,53.05,183,50.64Z"/><path class="cls-4" d="M184.31,47.44c3.76-1.54,6.57,6.1,3.08,7.53S181.16,48.73,184.31,47.44Z"/><path class="cls-4" d="M161.33,51.53a32.48,32.48,0,0,0,2.65-2c1-.79,1.9-1.32,2.32-2.59a1.73,1.73,0,0,0-.9-1.9c-1.5-.65-3,0-4.23.91a6.27,6.27,0,0,0-2.61,3.69A1.84,1.84,0,0,0,161.33,51.53Z"/><path class="cls-4" d="M186,42.57a28.61,28.61,0,0,1-3.33.2c-1.28.06-2.3.24-3.44-.45a1.7,1.7,0,0,1-.55-2c.7-1.47,2.25-1.93,3.79-2.07a6.29,6.29,0,0,1,4.38,1.1A1.84,1.84,0,0,1,186,42.57Z"/><path class="cls-4" d="M174.13,78.22a3.82,3.82,0,0,0,2.48.76A6.79,6.79,0,0,0,179,77.54c.07-.05.17,0,.14.09a3.41,3.41,0,0,1-2.62,2.29,2.68,2.68,0,0,1-2.57-1.52C173.85,78.28,174,78.17,174.13,78.22Z"/><path class="cls-4" d="M174.33,70.22A8.57,8.57,0,0,0,181,72.09a10.47,10.47,0,0,0,3-.81,3,3,0,0,0,.54-.25,4.66,4.66,0,0,0,.5-.25.62.62,0,0,0,.31-.69v0a1.54,1.54,0,0,0-.1-.24h0l-.07-.21c-.54-1.87-1.63-4.62-1.63-4.62.78.12,4.72.56,4.36-.39-3.06-7.83-6.47-16.55-11.17-23.7a.24.24,0,0,0-.42.21c2.65,7.64,6.62,14.77,9.4,22.41a14.84,14.84,0,0,0-4.24.08c-.24.16,2.2,5.28,2.38,6.13a.45.45,0,0,1,0,.1c-3,1.4-5.62,1.22-9.3.1C174.26,69.86,174.13,70.08,174.33,70.22Z"/><path class="cls-4" d="M182.59,71a10.17,10.17,0,0,1-3.1,4.13,4.58,4.58,0,0,1-2.63.9c-2.09,0-2.62-1.74-2.69-3.37a11.28,11.28,0,0,1,.23-2.57A13.18,13.18,0,0,0,182.59,71Z"/><path class="cls-10" d="M179.49,75.14a4.58,4.58,0,0,1-2.63.9c-2.09,0-2.62-1.74-2.69-3.37C176.31,72.31,178.76,73.16,179.49,75.14Z"/><path class="cls-4" d="M143.75,68.64c6.07-2.15,1.11-17.09,1.11-17.09s8.94-4.42,9.82-18.69c0,0,14.33,4.11,24-.68,15.11-7.5,8.69-28.1,1.51-30.6C170-2,157.42,11.11,157.42,11.11s-24.64.24-27,17.62c0,0-10,3.39-7.5,14.82S139.22,70.25,143.75,68.64Z"/><path class="cls-4" d="M143.16,54a21.83,21.83,0,0,0,10-9.95c2.12-4.56,2.34-10.67-.4-15-.15-.24.25-.46.39-.21,2.65,4.94,3.91,10.45,1.84,15.86a15.23,15.23,0,0,1-11.69,9.75C143.07,54.45,142.9,54.1,143.16,54Z"/><path class="cls-4" d="M120.24,37.21c2-4.89,6.6-6.9,11.39-8.1.27-.07.37.38.1.42-4.82.82-8.62,5.29-9.95,9.81s.6,9,2.76,12.84a34.49,34.49,0,0,0,18.93,15.91.11.11,0,0,1-.07.21A34.48,34.48,0,0,1,122.32,51C120.25,46.87,118.41,41.72,120.24,37.21Z"/><path class="cls-4" d="M157,12a16.2,16.2,0,0,1,6.82-9.24A19.49,19.49,0,0,1,177.45.32a10.94,10.94,0,0,1,8.11,7.37c1.53,4.24.69,8.89-.77,13a.1.1,0,0,1-.19-.06c1.05-3.78,1.52-7.84.17-11.64a10.06,10.06,0,0,0-8.17-6.92c-7.38-1-16.82,2.23-19.18,10.13C157.34,12.44,156.93,12.31,157,12Z"/><path class="cls-3" d="M144.38,69.25s-10.48-10.06-15.2-6.09S134,82.83,140.64,83.92a6.45,6.45,0,0,0,7.8-5.09Z"/><path class="cls-4" d="M132,67.59a.09.09,0,0,0,0,.18c4.72.9,7.82,4.49,10.26,8.36-1.62-1.35-3.56-1.89-5.42.09-.1.1.05.26.16.21a4,4,0,0,1,4.56.5A20,20,0,0,1,144.31,80c.28.35.94,0,.7-.42a.41.41,0,0,0,0-.09C144,73.89,138.09,67,132,67.59Z"/><path class="cls-9" d="M180,109.12l-7.81,21.59-27.32-25.78-7.13,8.88s27.35,41.57,27.44,39.64l8-18.57,13.08,12.21L184,115.26Z"/><path class="cls-4" d="M186.06,131.29c-.54-5.24-.95-10.53-1.73-15.75,0-.18-.33-.25-.36,0-.86,5.11,1.33,25.15,1.49,30l-.06,0c-.55-.53-12.1-10.73-12.2-10.55-1.78,3-7.68,16.5-8.07,17.72-4.33-6.6-20.86-30.58-25.92-36.79a.18.18,0,0,0-.31.19c3.87,7,25.77,39.31,26.08,39.2.22.16,7.56-16.51,8.39-19.63,2,2.24,13.68,13.8,13.69,13A163.83,163.83,0,0,0,186.06,131.29Z"/></svg>