<svg id="Layer_1" data-name="Layer 1" xmlns="http://www.w3.org/2000/svg" viewBox="0 0 424.27 301"><defs><style>.cls-1{fill:#7d95b7;}.cls-2{fill:#1a2e35;}.cls-3{fill:#ffc800;}.cls-4{fill:#ff9581;}.cls-5{fill:#a8a8a8;}.cls-6{fill:#fff;}.cls-7{fill:#c8c8c8;}.cls-8{fill:#375a64;}.cls-9{fill:#dcdcdc;}</style></defs><title>produk-baru-kelas-10</title><path class="cls-1" d="M208.92,274.09c-74,0-134.29-60.25-134.29-134.3S134.87,5.49,208.92,5.49s134.3,60.25,134.3,134.3S283,274.09,208.92,274.09Zm0-262c-70.42,0-127.71,57.3-127.71,127.72A127.72,127.72,0,1,0,208.92,12.07Z"/><circle class="cls-1" cx="208.92" cy="139.79" r="115.98" transform="translate(-37.65 188.67) rotate(-45)"/><path class="cls-2" d="M238.7,113.85a1,1,0,0,1-.83,1.08c-1.19.09-2.62.18-4.23.28-3.8-9.88-7.89-17.72-6.82-14.66a51.09,51.09,0,0,1,2.66,14.92l-8.37.41c-3.29-17.39-7.52-30.28-7.26-26.3,1.07,16,.12,21.21-1,26.72-20.18,1-46.65,1.91-65.8,2.19-2.21-9.62-4.15-20-4.49-19.3-2.6,5.44-3.31,13.32-3.37,19.39-6.09,0-11,0-13.94-.22,0,0-1.42-8.08-1.63-10.74a55.58,55.58,0,0,1,2.13-20.26c2-6.74,5.53-12.7,8.85-18.8a.41.41,0,0,1,.08-.13s0,0,0-.06a57.26,57.26,0,0,0,5.09-12.54.62.62,0,0,0,0-.1,55.81,55.81,0,0,0,1.57-9.63C142.3,34.22,149,24,160.14,20.8,181.21.93,202.33,9.26,208.71,24.48c.62,1.49,1.21,3.19,1.79,5l0,.06c2.16,6.86,4.1,15.76,5.89,22.65,0,0,0,0,0,0s0,.05,0,.08v0a64.4,64.4,0,0,0,2.51,8C224.28,72.69,236.45,79.72,238.7,113.85Z"/><path class="cls-2" d="M155.28,24.08c-7.33,3.82-11.81,9.4-12.95,18.07-.65,5.06-1,10-2.93,14.76-2,4.92-5.17,9-8.42,13-5.18,6.42-8.78,12.8-9.58,21.31S121,110,123.92,118.1a0,0,0,0,0,.07,0c-2.37-8.17-2.43-19.48-1-28,1.6-9.41,6.92-15.33,12.36-22.49a39.18,39.18,0,0,0,8-19.2c.54-4.28.48-8.74,2.2-12.78,2.06-4.81,6.16-7.88,10.23-10.61A.51.51,0,0,0,155.28,24.08Z"/><path class="cls-2" d="M231.23,73.58c-5.17-6.73-10.56-12.46-13.59-20.81-2.76-7.61-4.34-15.65-7.15-23.25,0-.12-.23-.07-.18.06C214.64,43.07,215.48,56.7,224.2,68c4.74,6.16,9.48,11.87,12.61,19.27a65.91,65.91,0,0,1,4.91,24.41c0,.3.39.28.42,0A54.52,54.52,0,0,0,231.23,73.58Z"/><path class="cls-3" d="M93.8,252.24c0-.33.11-.65.17-1-.07.42-.15.81-.2,1.23A2,2,0,0,1,93.8,252.24Z"/><path class="cls-3" d="M148.57,261.93a4.37,4.37,0,0,1-.57.3l-.08-.14,0,0,.59-.13Z"/><path class="cls-4" d="M171.23,116.14C137,150.88,93.84,224,101.88,238.77c9,16.5,56.68-32.2,56.49-35-.14-2.15,16.65-46.54,29.39-78.82S179.7,107.55,171.23,116.14Z"/><path class="cls-5" d="M158.69,203.78C160.15,199,183,140.51,189.53,122s.47-24.24-18.18-7.29S111.83,188.3,102.5,218.36c-9,28.95,5.92,28.95,25.59,15.61C144.19,223,158.69,203.78,158.69,203.78Z"/><path class="cls-6" d="M192,112c0,.35-.07.69-.12,1a1.2,1.2,0,0,1-1,.52A1.17,1.17,0,1,1,192,112ZM153.1,136.5a1.17,1.17,0,1,0,1.18,1.17A1.17,1.17,0,0,0,153.1,136.5Zm18.89,0a1.17,1.17,0,1,0,1.17,1.17A1.17,1.17,0,0,0,172,136.5Zm-9.44-12.11a1.18,1.18,0,1,0,1.17,1.18A1.17,1.17,0,0,0,162.55,124.39Zm18.89,0a1.18,1.18,0,1,0,1.17,1.18A1.18,1.18,0,0,0,181.44,124.39Zm-47.23,37.38a1.17,1.17,0,1,0,1.18,1.17A1.17,1.17,0,0,0,134.21,161.77Zm18.89,0a1.17,1.17,0,1,0,1.18,1.17A1.17,1.17,0,0,0,153.1,161.77Zm18.89,0a1.17,1.17,0,1,0,1.17,1.17A1.17,1.17,0,0,0,172,161.77Zm-28.33-12.11a1.18,1.18,0,1,0,1.17,1.18A1.17,1.17,0,0,0,143.66,149.66Zm18.89,0a1.18,1.18,0,1,0,1.17,1.18A1.17,1.17,0,0,0,162.55,149.66ZM134.21,187a1.18,1.18,0,1,0,1.18,1.18A1.18,1.18,0,0,0,134.21,187Zm18.89,0a1.18,1.18,0,1,0,1.18,1.18A1.18,1.18,0,0,0,153.1,187Zm-28.33-12.1a1.18,1.18,0,1,0,1.17,1.17A1.17,1.17,0,0,0,124.77,174.93Zm18.89,0a1.18,1.18,0,1,0,1.17,1.17A1.17,1.17,0,0,0,143.66,174.93Zm18.89,0a1.18,1.18,0,1,0,1.17,1.17A1.17,1.17,0,0,0,162.55,174.93ZM115.33,212.3a1.18,1.18,0,1,0,1.17,1.17A1.18,1.18,0,0,0,115.33,212.3Zm18.88,0a1.18,1.18,0,1,0,1.18,1.17A1.18,1.18,0,0,0,134.21,212.3Zm-9.44-12.1a1.17,1.17,0,1,0,1.17,1.17A1.17,1.17,0,0,0,124.77,200.2Zm18.89,0a1.17,1.17,0,1,0,1.17,1.17A1.17,1.17,0,0,0,143.66,200.2Zm-28.33,37.37a1.18,1.18,0,1,0,1.17,1.17A1.18,1.18,0,0,0,115.33,237.57Zm-9.45-12.1a1.17,1.17,0,1,0,1.17,1.17A1.17,1.17,0,0,0,105.88,225.47Zm18.89,0a1.17,1.17,0,1,0,1.17,1.17A1.17,1.17,0,0,0,124.77,225.47Z"/><path class="cls-7" d="M269.05,239a116.16,116.16,0,0,1-123.74-2.22l.25-1.54,4.93-36.42s-11.58-20.23-4.84-34.73C149,156.76,178.8,111,191.34,102c11.75-8.53,28.81.6,35.17,7.29C248.94,132.88,260.52,177.9,269.05,239Z"/><path class="cls-2" d="M145.58,235.26c.62-6.09,1.27-12.18,2-18.27s1.4-12.17,2.22-18.24l.14.54a41,41,0,0,1-6.72-16.75,40.35,40.35,0,0,1-.39-9.06,33.71,33.71,0,0,1,2.24-8.82,87.44,87.44,0,0,1,8.47-15.79,142,142,0,0,1,10.68-14.29c-3.5,4.8-6.76,9.76-9.84,14.82a102.22,102.22,0,0,0-7.94,15.78,31.78,31.78,0,0,0-2.05,8.42,41.47,41.47,0,0,0,.44,8.69,39.43,39.43,0,0,0,6.25,16.12l.18.26,0,.28c-.82,6.07-1.8,12.11-2.7,18.17S146.61,229.22,145.58,235.26Z"/><path class="cls-2" d="M154.28,149a9.46,9.46,0,0,1,.43-2.42,17.42,17.42,0,0,1,.83-2.29,20,20,0,0,1,1.09-2.17,14.9,14.9,0,0,1,1.35-2,38.31,38.31,0,0,1-1.69,4.53C155.65,146,155,147.47,154.28,149Z"/><path class="cls-2" d="M170.78,194.11a75.47,75.47,0,0,1,19.55,3.26c6.39,1.81,20.5,7.4,24,8.77a.08.08,0,0,1,0,.15,124.16,124.16,0,0,1-13.59-4.09c-6.26-2.13-12.57-4.06-19-5.72a87.28,87.28,0,0,0-11-2A.2.2,0,0,1,170.78,194.11Z"/><path class="cls-2" d="M159.12,197.48a60.62,60.62,0,0,1,20.55,1.82c.08,0,.06.15,0,.14-3.41-.4-6.8-.8-10.22-1.09s-6.88-.46-10.31-.69A.09.09,0,1,1,159.12,197.48Z"/><path class="cls-4" d="M101.88,238.77c7.72,11,28.71,13.14,81.09,23.4,7.25,1.42,31-47,23.36-49-9.65-2.41-47.62-9.67-50.46-9.85C131.88,201.85,96.65,231.29,101.88,238.77Z"/><path class="cls-4" d="M195.86,210.83s22.19,3.36,33.3,8.73c14.88,7.19,24.76,19.52,28.6,24.94,8,11.32,19.5,44.19,10.61,49.16-8.05,4.5-18.12-29.7-18.12-29.7s16,33.18,5.34,36.81S235.47,264,235.47,264s15.7,34.46,4.09,36.46c-8.78,1.52-19.38-34.56-19.38-34.56s13.29,29.71,4.33,31.65c-9.9,2.15-21.78-30.54-21.78-30.54-23.6,1.12-35.3-8-42.84-15.49C158.06,249.74,195.86,210.83,195.86,210.83Z"/><path class="cls-2" d="M245.45,252.13c2,3.83,4.09,7.69,5.77,11.68s3.21,8.06,4.51,12.19c3.18,10.14,3.58,17,3.51,16.57-1.68-9.94-7.46-24.34-9.13-28.33s-3.15-8.06-4.82-12.05C245.25,252.08,245.4,252,245.45,252.13Z"/><path class="cls-2" d="M230.91,257.92c2.37,5,4.91,9.88,7.06,15s3.73,10.1,5.51,15.31c.14.4-.12.35-.27,0-2-5.14-4.24-9.74-6.29-14.86S233,263,230.79,258C230.75,257.88,230.87,257.84,230.91,257.92Z"/><path class="cls-2" d="M217.54,260.64c4,7.46,6.65,15.65,9,23.74.12.41-.21.29-.35-.11-2.86-7.95-5-14.21-8.95-23.49C217.22,260.63,217.45,260.48,217.54,260.64Z"/><path class="cls-5" d="M200.49,210.83,154.6,261.94s-46.4-10.66-53.24-22.56c-4.5-7.83,30.43-39.56,56.81-35.86Z"/><path class="cls-6" d="M135.39,213.47a1.18,1.18,0,1,1-1.18-1.17A1.18,1.18,0,0,1,135.39,213.47Zm17.71-1.17a1.18,1.18,0,1,0,1.18,1.17A1.18,1.18,0,0,0,153.1,212.3Zm18.89,0a1.18,1.18,0,1,0,1.17,1.17A1.17,1.17,0,0,0,172,212.3Zm18.89,0a1.18,1.18,0,1,0,1.17,1.17A1.17,1.17,0,0,0,190.88,212.3Zm-75.55,25.27a1.18,1.18,0,1,0,1.17,1.17A1.18,1.18,0,0,0,115.33,237.57Zm18.88,0a1.18,1.18,0,1,0,1.18,1.17A1.18,1.18,0,0,0,134.21,237.57Zm18.89,0a1.18,1.18,0,1,0,1.18,1.17A1.18,1.18,0,0,0,153.1,237.57Zm18.89,0a1.18,1.18,0,1,0,1.17,1.17A1.17,1.17,0,0,0,172,237.57Zm-47.22-12.1a1.17,1.17,0,1,0,1.17,1.17A1.17,1.17,0,0,0,124.77,225.47Zm18.89,0a1.17,1.17,0,1,0,1.17,1.17A1.17,1.17,0,0,0,143.66,225.47Zm18.89,0a1.17,1.17,0,1,0,1.17,1.17A1.17,1.17,0,0,0,162.55,225.47Zm18.89,0a1.17,1.17,0,1,0,1.17,1.17A1.17,1.17,0,0,0,181.44,225.47Zm-56.67,25.27a1.17,1.17,0,1,0,1.17,1.17A1.17,1.17,0,0,0,124.77,250.74Zm18.89,0a1.17,1.17,0,1,0,1.17,1.17A1.17,1.17,0,0,0,143.66,250.74Zm18.89,0a1.18,1.18,0,0,0-1.17,1.17,1.16,1.16,0,0,0,1.17,1.17l1.16-1.29v0A1.18,1.18,0,0,0,162.55,250.73Z"/><path class="cls-2" d="M126.7,211.83c4.26-3.08,16.23-10.27,31.5-8.35.14,0,.14.23,0,.23-11.51-.33-27,5.69-31.4,8.31C126.69,212.09,126.6,211.91,126.7,211.83Z"/><path class="cls-2" d="M142.05,253.38c4.75-5.89,9.8-11.52,14.87-17.14S167.06,225,172.27,219.5c2.95-3.1,5.88-6.22,8.93-9.23.08-.07.23,0,.16.13-4.74,5.88-9.78,11.54-14.8,17.18s-10.14,11.26-15.28,16.81c-2.91,3.14-5.88,6.23-8.93,9.23C142.2,253.77,141.91,253.55,142.05,253.38Z"/><path class="cls-2" d="M200.57,210.17a66.11,66.11,0,0,0-8.6-2c-2.9-.54-5.8-1-8.71-1.5-5.79-.93-17.94-3.55-28.62-3.52-.12,0,.48.57.6.56,5.09-.27,41.54,7,44.53,7.19a5.86,5.86,0,0,0-.32.61c-.06.15.09.34.24.23.38-.25.65-.56,1-.84A.43.43,0,0,0,200.57,210.17Z"/><path class="cls-5" d="M234.83,112.42c43.86,38.25,78.35,85.5,76.1,97.32-4.17,22-33.13,23.37-37.52,18.61-17.76-19.23-36.49-56.5-56.79-98.09C198.48,93.1,220.39,99.82,234.83,112.42Z"/><path class="cls-6" d="M226.85,111.23a1.17,1.17,0,1,1-1.17-1.18A1.17,1.17,0,0,1,226.85,111.23Zm-1.17,24.09a1.18,1.18,0,1,0,1.17,1.18A1.17,1.17,0,0,0,225.68,135.32Zm18.89,0a1.18,1.18,0,1,0,1.17,1.18A1.18,1.18,0,0,0,244.57,135.32Zm-28.34-12.1a1.18,1.18,0,1,0,1.18,1.17A1.18,1.18,0,0,0,216.23,123.22Zm18.89,0a1.18,1.18,0,1,0,1.17,1.17A1.18,1.18,0,0,0,235.12,123.22Zm9.45,37.37a1.18,1.18,0,1,0,1.17,1.17A1.18,1.18,0,0,0,244.57,160.59Zm18.89,0a1.18,1.18,0,1,0,1.17,1.17A1.18,1.18,0,0,0,263.46,160.59Zm18.48.06a1.2,1.2,0,0,0-.76,1.11,1.16,1.16,0,0,0,1.17,1.17,1.17,1.17,0,0,0,1-.57Q282.63,161.51,281.94,160.65Zm-46.82-12.16a1.17,1.17,0,1,0,1.17,1.17A1.17,1.17,0,0,0,235.12,148.49Zm18.89,0a1.17,1.17,0,1,0,1.17,1.17A1.17,1.17,0,0,0,254,148.49Zm17.9.55a1.18,1.18,0,0,0-.17.62,1.15,1.15,0,0,0,1.17,1.17,1.09,1.09,0,0,0,.48-.1C272.91,150.16,272.41,149.61,271.91,149ZM245,186c.24.43.47.86.71,1.27a.62.62,0,0,0,0-.19A1.15,1.15,0,0,0,245,186Zm18.45-.09a1.17,1.17,0,1,0,1.17,1.17A1.18,1.18,0,0,0,263.46,185.86Zm18.88,0a1.17,1.17,0,1,0,1.18,1.17A1.18,1.18,0,0,0,282.34,185.86Zm18.44.09h0a1.15,1.15,0,0,0-.71,1.08,1.16,1.16,0,0,0,1.17,1.17,1.15,1.15,0,0,0,.79-.31C301.63,187.26,301.22,186.6,300.78,186ZM254,173.76a1.17,1.17,0,1,0,1.17,1.17A1.17,1.17,0,0,0,254,173.76Zm18.89,0a1.17,1.17,0,1,0,1.17,1.17A1.17,1.17,0,0,0,272.9,173.76Zm20.05.94s0,0,0,0h0c-.19-.26-.36-.49-.55-.73a1.2,1.2,0,0,0-.59-.15,1.16,1.16,0,0,0-1.17,1.17,1.17,1.17,0,1,0,2.34,0A1.85,1.85,0,0,0,293,174.7Zm-29.49,36.43a1.17,1.17,0,1,0,1.17,1.17A1.17,1.17,0,0,0,263.46,211.13Zm18.88,0a1.17,1.17,0,1,0,1.18,1.17A1.17,1.17,0,0,0,282.34,211.13Zm18.89,0a1.17,1.17,0,1,0,1.17,1.17A1.17,1.17,0,0,0,301.23,211.13ZM254,199a1.17,1.17,0,1,0,1.17,1.17A1.17,1.17,0,0,0,254,199Zm18.89,0a1.17,1.17,0,1,0,1.17,1.17A1.17,1.17,0,0,0,272.9,199Zm18.89,0A1.17,1.17,0,1,0,293,200.2,1.17,1.17,0,0,0,291.79,199ZM272.9,224.3a1.17,1.17,0,1,0,1.17,1.17A1.17,1.17,0,0,0,272.9,224.3Zm18.89,0a1.17,1.17,0,1,0,1.17,1.17A1.17,1.17,0,0,0,291.79,224.3Z"/><path class="cls-2" d="M266.18,219.76c-3.22-5-6.24-10.13-9.31-15.21s-6.12-10.2-9.1-15.34c-5.91-10.16-11.39-20.55-16.67-31-3-5.94-6-11.86-8.88-17.87-.09-.18-.41,0-.34.15q4.13,10.47,8.9,20.64l-.18-.22c-.71-1-1.42-1.92-2.11-2.89-1.38-1.9-2.67-3.87-3.89-5.86a.15.15,0,0,0-.26.15,65.6,65.6,0,0,0,4.81,7.84,34,34,0,0,0,2.74,3.47l.09.09c1.45,3,2.93,6,4.49,9a356.1,356.1,0,0,0,17.89,30.84c1.84,2.79,3.69,5.58,5.61,8.31s4,5.39,6,8.09A.13.13,0,0,0,266.18,219.76Z"/><path class="cls-4" d="M280.67,224.09c-8.3-11.92-4.09-35.64,5-92.53,1.26-7.88,61-8.49,60.11,0-1.16,10.68-11.79,52.87-14.57,59.07C317.66,221,286.31,232.18,280.67,224.09Z"/><path class="cls-4" d="M347.75,107.93c-2.31-18.1-5.68-22.4.49-38.7,4-10.71-1.05-17.88-10-10-14.56,12.92-16.48,36.89-14.76,45.4Z"/><path class="cls-2" d="M289.94,41.44l-21.67,72.87c-.88,2.13.13,3.93,2.26,4l38,1.61a6.17,6.17,0,0,0,5.44-3.7l21.67-72.87c.88-2.13-.13-3.93-2.25-4l-38-1.61A6.15,6.15,0,0,0,289.94,41.44Z"/><path class="cls-8" d="M294.45,41.59l-21.67,72.87c-.88,2.13.13,3.93,2.26,4l38,1.61a6.14,6.14,0,0,0,5.43-3.7l21.68-72.87c.88-2.13-.14-3.93-2.26-4l-38-1.61A6.17,6.17,0,0,0,294.45,41.59Z"/><path class="cls-2" d="M304.73,45.39a3.23,3.23,0,1,1-3-3.43A3.22,3.22,0,0,1,304.73,45.39Z"/><path class="cls-4" d="M338.37,159.08s10.83-23.51,10.28-43c-.38-13.51-4.48-42.8-39.78-62.31-8.37-4.62-23.58-5.28-12.65,7.24,7.76,8.9,15.37,12.2,18.94,18.19,0,0-19.44,1.46-23.75,10a175.6,175.6,0,0,0-9.66,23.19,36.94,36.94,0,0,0,4.17,2.2s-3.26,8.38,1.56,21.19Z"/><path class="cls-4" d="M346.23,103.21c-4.81-5.21-15.18-16.06-26.75-22C306.63,74.64,280.1,65.41,275.34,75c-3.5,7,6.32,11.41,6.32,11.41s-11.77-1.5-13.54,5.5c-1.62,6.39,6.19,9.35,6.19,9.35s-7.3.31-7.67,6.76c-.45,7.76,14.91,5.82,21.25,14.07C289.31,123.9,346.23,103.21,346.23,103.21Z"/><path class="cls-2" d="M314.79,96c-5.32-4.15-19.83-10.48-32.88-9.77-.29,0-.44.25-.17.29a142.26,142.26,0,0,1,33,9.6C314.8,96.12,314.85,96,314.79,96Z"/><path class="cls-2" d="M307.77,108.74c-5-3.11-20.2-9-33.41-7.79-.29,0-.42.27-.15.3a151.57,151.57,0,0,1,33.5,7.62A.07.07,0,0,0,307.77,108.74Z"/><path class="cls-5" d="M346.76,150.82l-69.29,19.66s-13.83,45.42-5,56.82c9.4,12.18,53-6.69,61.71-33.24Z"/><path class="cls-6" d="M321.29,161.76a1.17,1.17,0,1,1-1.17-1.17A1.17,1.17,0,0,1,321.29,161.76ZM339,160.59a1.18,1.18,0,1,0,1.17,1.17A1.17,1.17,0,0,0,339,160.59Zm-56.67,25.27a1.17,1.17,0,1,0,1.18,1.17A1.18,1.18,0,0,0,282.34,185.86Zm18.89,0a1.17,1.17,0,0,0,0,2.34,1.17,1.17,0,0,0,0-2.34Zm18.89,0a1.17,1.17,0,1,0,1.17,1.17A1.17,1.17,0,0,0,320.12,185.86Zm-28.33-12.1a1.17,1.17,0,1,0,1.17,1.17A1.17,1.17,0,0,0,291.79,173.76Zm18.89,0a1.17,1.17,0,1,0,1.17,1.17A1.17,1.17,0,0,0,310.68,173.76Zm18.89,0a1.17,1.17,0,1,0,1.17,1.17A1.17,1.17,0,0,0,329.57,173.76Zm-47.23,37.37a1.17,1.17,0,1,0,1.18,1.17A1.17,1.17,0,0,0,282.34,211.13Zm18.89,0a1.17,1.17,0,1,0,1.17,1.17A1.17,1.17,0,0,0,301.23,211.13Zm18.89,0a1.17,1.17,0,1,0,1.17,1.17A1.17,1.17,0,0,0,320.12,211.13ZM272.9,199a1.17,1.17,0,1,0,1.17,1.17A1.17,1.17,0,0,0,272.9,199Zm18.89,0A1.17,1.17,0,1,0,293,200.2,1.17,1.17,0,0,0,291.79,199Zm18.89,0a1.17,1.17,0,1,0,1.17,1.17A1.17,1.17,0,0,0,310.68,199Zm18.89,0a1.17,1.17,0,1,0,1.17,1.17A1.17,1.17,0,0,0,329.57,199ZM272.9,224.3a1.17,1.17,0,1,0,1.17,1.17A1.17,1.17,0,0,0,272.9,224.3Zm18.89,0a1.17,1.17,0,1,0,1.17,1.17A1.17,1.17,0,0,0,291.79,224.3Z"/><path class="cls-2" d="M279.74,186.24c7.73-1.75,15.37-3.92,23-6.1s15.27-4.36,22.85-6.74c4.28-1.34,8.57-2.66,12.8-4.15.11,0,.08-.23,0-.21-7.73,1.75-15.38,3.89-23,6s-15.28,4.35-22.88,6.64c-4.3,1.29-8.57,2.66-12.81,4.15C279.44,185.93,279.51,186.29,279.74,186.24Z"/><path class="cls-2" d="M279.93,169.73c-1.08.11-2.15.34-3.22.54a.51.51,0,0,0-.33.35c-1.18,4-2,8.19-2.86,12.3s-1.56,8.14-2.23,12.22c-.37,2.2-.69,4.41-.94,6.61a23.85,23.85,0,0,0-2.4,8.57c0,.15.25.18.27,0a29,29,0,0,1,2-7.7,54.17,54.17,0,0,0,.43,16.22s.05,0,.05,0c-1.37-8,.65-16.35,2-24.22.66-3.95,1.41-7.88,2.18-11.8s1.69-7.81,2.4-11.73c.92-.35,1.85-.69,2.73-1.11A.14.14,0,0,0,279.93,169.73Z"/><path class="cls-4" d="M209.25,99.34c-.36,2.29-10,17.67-20.34,17.94-3.36.09-4.63-18.23-4.63-18.23l-.4-1.33-5.63-18.64,21.21-15.9,3.08-2.13s1.2,5.2,2.63,11.69c.07.3.14.6.2.92s.19.71.25,1.06c.23,1,.46,2,.66,2.94.16.75.32,1.48.46,2.28s.3,1.57.46,2.36C208.6,90.17,209.39,98.37,209.25,99.34Z"/><path class="cls-2" d="M209.06,95.86c-14.34,2.57-22.62-.81-26.91-3.84l-3.9-12.94,21.21-15.9,3.07-2.12s1.2,5.18,2.63,11.68q.1.44.21.93c.09.36.19.71.26,1,.22,1,.45,2,.65,3,.16.74.31,1.48.45,2.27s.31,1.57.47,2.36C208.11,87.35,208.75,92.54,209.06,95.86Z"/><path class="cls-4" d="M219.47,48.53c6.45,33.55-12.91,41.2-20.14,42.58-6.57,1.25-29.09,4.69-39-28s3.68-46.31,18.55-50S213,15,219.47,48.53Z"/><path class="cls-2" d="M213.15,42.11a20.64,20.64,0,0,1-2.36-.17,3.85,3.85,0,0,1-2.37-.62,1.23,1.23,0,0,1-.2-1.47,3,3,0,0,1,2.85-1.11,4.43,4.43,0,0,1,3,1.18A1.29,1.29,0,0,1,213.15,42.11Z"/><path class="cls-2" d="M189.15,44.11a21.68,21.68,0,0,0,2.23-.76,3.75,3.75,0,0,0,2.13-1.21,1.2,1.2,0,0,0-.18-1.47,3,3,0,0,0-3-.34,4.41,4.41,0,0,0-2.57,1.88A1.3,1.3,0,0,0,189.15,44.11Z"/><path class="cls-2" d="M196.4,53.49c0-.08-.16.14-.15.23.41,2.29.49,5-1.49,6.05-.06,0,0,.15,0,.13C197.29,59.17,197.15,55.6,196.4,53.49Z"/><path class="cls-2" d="M194,51.39c-3.75.25-3,7.72.5,7.48S197.14,51.17,194,51.39Z"/><path class="cls-2" d="M192.57,51.93c-.6.49-1.17,1.31-1.94,1.47s-1.67-.53-2.35-1.22c-.07-.07-.12,0-.11.1.12,1.44.83,2.85,2.38,2.9s2.3-1.33,2.5-2.8C193.09,52.11,192.82,51.74,192.57,51.93Z"/><path class="cls-2" d="M209.85,51.16c0-.09.19.09.2.19.19,2.31.8,4.94,3,5.47.07,0,.08.13,0,.13C210.43,56.88,209.65,53.39,209.85,51.16Z"/><path class="cls-2" d="M211.63,48.51c3.69-.7,4.83,6.72,1.42,7.37S208.55,49.1,211.63,48.51Z"/><path class="cls-2" d="M213.26,48.76c.64.31,1.33.93,2,.87s1.3-1,1.7-1.82c0-.08.11,0,.13.07.25,1.41,0,3-1.31,3.44s-2.3-.64-2.86-2C212.86,49.07,213,48.64,213.26,48.76Z"/><path class="cls-2" d="M199.08,71.48c.59.51,1.19,1.23,2,1.25a6.15,6.15,0,0,0,2.46-.73.08.08,0,0,1,.11.11,3.13,3.13,0,0,1-2.87,1.44,2.49,2.49,0,0,1-1.95-2C198.82,71.47,199,71.41,199.08,71.48Z"/><path class="cls-2" d="M207.76,62s.88,3.4,1.07,5c0,.15-.37.27-.92.36,0,0,0,0-.06,0a7.78,7.78,0,0,1-7.85-2,.17.17,0,0,1,.22-.25,11.8,11.8,0,0,0,7.3,1.2c.06-.47-1.7-5.77-1.45-5.82a14.13,14.13,0,0,1,3.8.41c-1.63-7.12-4.39-13.93-5.9-21a.22.22,0,0,1,.41-.15c3.4,6.93,5.45,15.08,7.32,22.4C211.94,63,208.45,62.21,207.76,62Z"/><path class="cls-2" d="M161.73,63.4c8.42-1,8.81-27.11,8.83-30.32.09,2,.65,12.73,1.5,13.09a8.46,8.46,0,0,0,2.61-.71h0a24.6,24.6,0,0,1,0-3.84c0-.6.33,1.26.83,3.55.47-.17,1-.37,1.53-.56a30.4,30.4,0,0,1,.16-8.19c.16-1,.79,3.49,2.07,7.38,5.7-2,13.95-4.76,21.8-5.65,2.1-.24,3.92-.36,5.53-.41-.24-3.16-.87-6.49-.58-5.78a30.58,30.58,0,0,1,1.78,5.75c.88,0,1.69,0,2.42,0-.14-4.47-2.82-11.41-2-10.38a31.52,31.52,0,0,1,5.17,10.63c3.09.35,4,.88,4,.08,0-1.44-2.69-13.76-13.12-22.13C192.9,6.79,171.66,6,161,22.21c0,0-9.26,7.15-10,17.55S156.87,64,161.73,63.4Z"/><path class="cls-6" d="M192.55,66.36a10.52,10.52,0,1,1,9.78-13.43h0a10.53,10.53,0,0,1-9.78,13.43Zm-.61-19.63a9.24,9.24,0,0,0-2.24.35,9.12,9.12,0,1,0,2.24-.35Z"/><path class="cls-6" d="M216.41,62.67c-4,.12-7.8-3.89-8.61-9.31a12.64,12.64,0,0,1,1.11-7.61A6.55,6.55,0,0,1,220,44.1,12.48,12.48,0,0,1,223.29,51c.86,5.74-1.92,10.93-6.19,11.56A5.38,5.38,0,0,1,216.41,62.67Zm-1.68-19.53a3.27,3.27,0,0,0-.53,0,5.58,5.58,0,0,0-4,3.21,11.21,11.21,0,0,0-1,6.75c.74,5,4.19,8.59,7.7,8.06s5.75-5,5-10A11.13,11.13,0,0,0,219,45.08,5.8,5.8,0,0,0,214.73,43.14Z"/><path class="cls-6" d="M202.16,54.18l-1-.93c1.38-1.56,4.76-3.89,7.71-1.55L208,52.8C205.31,50.7,202.29,54,202.16,54.18Z"/><path class="cls-6" d="M158.31,63.85,157,63.4c.22-.62,2.16-6.09,5.19-7.06,2.84-.9,19.63-2,20.44-2.05l.07,1.4c-5.42.29-17.89,1.29-20.08,2C160.6,58.32,158.83,62.35,158.31,63.85Z"/><path class="cls-4" d="M167.26,63.8s-8.51-9.83-13-6.69,2.63,17.94,8.5,19.46a5.78,5.78,0,0,0,7.38-3.89Z"/><path class="cls-2" d="M156.37,61.3c-.09,0-.1.13,0,.16,4.13,1.19,6.6,4.65,8.45,8.3-1.33-1.34-3-2-4.83-.37-.1.08,0,.24.13.2a3.55,3.55,0,0,1,4,.83,17.63,17.63,0,0,1,2.19,3c.22.34.84.08.66-.31l0-.09C166.5,67.91,161.84,61.25,156.37,61.3Z"/><path class="cls-2" d="M160.21,19.35c-.15,2.5-12,8.51-20.54,2.11s-5-19.06,6.68-17.8C153.7,4.45,160.51,14.05,160.21,19.35Z"/><path class="cls-2" d="M135.37,10.17A14.68,14.68,0,0,1,141.84,3a8.85,8.85,0,0,1,8.85,0,17.89,17.89,0,0,1,6.54,7,27,27,0,0,1,2,4.52,13.49,13.49,0,0,1,1,4.91,12.09,12.09,0,0,0-.06-5.15,22.58,22.58,0,0,0-1.62-4.95,17.26,17.26,0,0,0-6.93-7.92,9.86,9.86,0,0,0-10.49.38A12.93,12.93,0,0,0,135.37,10.17Z"/><path class="cls-4" d="M148.49,261.94l-.57.15,0,0Z"/><path class="cls-3" d="M94,251.25c-.07.42-.15.81-.2,1.23a2,2,0,0,1,0-.24C93.85,251.91,93.91,251.59,94,251.25Z"/><path class="cls-3" d="M94,251.25c-.07.42-.15.81-.2,1.23a2,2,0,0,1,0-.24C93.85,251.91,93.91,251.59,94,251.25Z"/><path class="cls-3" d="M151.08,267.89h0c-.6.14-1.19.29-1.78.41Z"/><path class="cls-9" d="M94,251.25c-.07.42-.15.81-.2,1.23a2,2,0,0,1,0-.24C93.85,251.91,93.91,251.59,94,251.25Z"/></svg>